<svg width="530" height="336" viewBox="0 0 530 336" fill="none" xmlns="http://www.w3.org/2000/svg">
<path d="M265 0.518188L313.315 74.03L420.763 32.5078L391.49 109.93L517.03 116.258L421.35 168.018L517.03 219.779L391.49 226.106L420.763 303.529L313.315 262.006L265 335.518L216.685 262.006L109.237 303.529L138.51 226.106L12.97 219.779L108.65 168.018L12.97 116.258L138.51 109.93L109.237 32.5078L216.685 74.03L265 0.518188Z" fill="#55FFAD"/>
<path d="M144.763 106.331C145.523 103.289 146.225 100.131 146.956 96.9023C147.367 95.0877 148.982 93.8048 150.843 93.8048H172.884C172.516 96.6776 172.094 99.7128 171.658 102.871C171.384 104.852 169.691 106.331 167.69 106.331H144.763ZM182.491 130.981C184.575 118.38 186.719 104.049 188.325 91.2097C189.056 85.3727 184.47 80.2771 178.588 80.2771H175.986L150 82.5182C150.801 78.7104 152.269 72.6615 152.969 68.9539H202.305V55.0254H115.742V68.9539H137.058C134.889 80.861 131.841 94.3837 128.767 106.066C126.996 112.794 132.223 119.476 139.171 119.116L170 117.518C169.4 121.326 167.88 127.374 167.179 130.981H112.84V145.11H205.207V130.981H182.491Z" fill="#06102B"/>
<path d="M250.74 126.472H268.152C267.652 127.273 267.152 127.975 266.651 128.676C261.347 129.077 256.044 129.478 250.74 129.879V126.472ZM232.627 104.928V101.921H237.63V104.928H232.627ZM232.627 90.6985H237.63V93.7046H232.627V90.6985ZM255.643 90.6985V93.7046H250.74V90.6985H255.643ZM255.643 104.928H250.74V101.921H255.643V104.928ZM291.269 74.1646C291.369 67.7515 291.369 60.9375 291.369 53.8229H277.459C277.459 61.0377 277.459 68.7052 277.459 75.0182L269.253 75.5182V89.0182L277 88.5182C276.299 104.651 274.457 116.451 268.152 126.472V116.351H250.74V113.746H257.552C263.075 113.746 267.552 109.269 267.552 103.746V91.8804C267.552 86.3576 263.075 81.8804 257.552 81.8804H250.74V79.3753H268.853V69.0541H250.74V65.5469C256.944 64.8455 262.848 64.0439 268.052 62.9416L261.948 52.2196C250.54 54.6245 233.627 56.328 218.617 57.0295C219.917 59.8352 221.319 64.3445 221.719 67.2504C226.822 67.1502 232.226 66.9498 237.63 66.6492V69.0541H218.817V79.3753H237.63V81.8804H231.218C225.696 81.8804 221.218 86.3576 221.218 91.8804V103.746C221.218 109.269 225.696 113.746 231.218 113.746H237.63V116.351H220.818V126.472H237.63V130.781C230.225 131.282 223.52 131.682 218.016 131.983L219.114 140.225C219.396 142.342 221.289 143.865 223.417 143.68C234.589 142.711 248.529 141.445 262.148 140.1C264.65 142.605 267.252 145.711 268.553 148.016C284.964 134.689 289.599 115.074 291 88.0182L296.973 87.4919C296.473 117.554 295.672 129.278 293.771 131.883C292.77 133.286 291.869 133.687 290.368 133.687C288.367 133.687 284.964 133.687 280.962 133.286C282.64 136.136 283.946 140.053 284.647 143.519C285.055 145.54 286.738 147.157 288.799 147.161C292.236 147.168 295.392 147.034 297.774 146.513C301.276 145.711 303.778 144.509 306.28 140.701C309.482 135.991 310.183 120.96 310.983 80.3773C310.983 76.1469 307.367 72.8202 303.151 73.1723L291.269 74.1646Z" fill="#06102B"/>
<path d="M359.618 105.829H374.329V91.8007H331.498V105.829H345.108V127.173C338.403 128.175 332.198 129.077 327.295 129.678L330.236 140.778C330.777 142.819 332.81 144.088 334.881 143.678C347.467 141.183 363.187 138.086 377.831 134.989L376.831 122.063C371.127 123.065 365.322 123.967 359.618 124.868V105.829ZM418.16 82.2812V68.0521H409.454L416.459 62.0398C414.957 60.257 412.558 58.1025 410.001 56.0413C406.52 53.2353 401.569 53.48 398.119 56.3232L394.343 59.4344C397.546 61.8393 401.348 65.1461 404.05 68.0521H391.341C391.241 62.8414 391.241 57.5305 391.441 52.3198H375.73C375.73 57.5305 375.83 62.8414 375.93 68.0521H327.595V82.2812H376.63C378.832 116.952 385.937 147.114 403.65 147.114C414.158 147.114 418.961 142.705 421.063 122.664C415.608 120.666 408.373 123.873 406.685 129.431C406.202 131.023 405.626 131.783 404.951 131.783C399.047 131.783 393.843 109.337 391.942 82.2812H418.16Z" fill="#06102B"/>
<path d="M60.4025 247.36C60.0022 255.477 59.1015 264.395 57 270.107C58.3822 270.48 60.4422 271.107 62.4149 271.808C64.795 272.655 67.6244 271.466 68.1765 269.001C69.465 263.247 70.3247 256.007 70.7099 249.064L60.4025 247.36ZM71.4104 248.964C72.311 255.577 73.2117 264.195 73.3118 270.007L80.109 268.151C81.9242 267.655 83.1526 265.962 83.0003 264.086C82.5632 258.706 81.7083 252.018 80.7171 246.559L71.4104 248.964ZM125.349 247.962C124.048 247.962 123.848 247.06 123.848 245.056V241.148H135.657V230.426H125.049L125.556 230.248C127.529 229.557 128.579 227.479 127.796 225.541C127.481 224.761 127.151 223.965 126.85 223.211H135.557V212.489H132.454C133.455 208.982 134.556 204.773 135.857 200.665L126.35 198.36C125.85 202.468 124.649 208.28 123.648 212.489H117.043L121.947 210.786C121.547 207.379 120.146 202.068 118.444 198.16L110.439 200.765C111.84 204.372 113.04 208.982 113.441 212.489H109.738V223.211H123.048L116.443 225.215C117.043 226.818 117.744 228.722 118.244 230.426H109.838V241.148H112.44V244.956C112.44 253.874 114.341 257.581 123.948 257.581H129.752C130.718 257.581 131.768 257.56 132.767 257.479C134.613 257.329 135.668 255.586 135.508 253.741C135.32 251.561 135.188 249.172 135.056 247.26C133.655 247.761 130.953 247.962 129.452 247.962H125.349ZM150.367 194.231C150.367 188.708 145.89 184.231 140.367 184.231H105.528C100.005 184.231 95.5278 188.708 95.5278 194.231V235.436C94.1268 231.027 92.1253 225.315 90.324 220.806L81.2175 224.313C81.8179 226.017 82.4183 227.921 83.0188 229.825L75.7135 230.827C82.9187 221.808 89.9237 211.086 95.1275 200.665L84.8201 193.851C82.8186 198.661 80.4169 203.571 77.9151 208.08L76.768 208.148C75.1295 208.244 74.069 206.428 74.9215 205.026C78.6659 198.866 82.2051 191.922 84.8201 185.333L73.4118 180.524C70.3096 190.945 64.7056 201.867 62.8042 204.673C61.6311 206.565 60.543 207.99 59.3739 208.92C58.435 209.667 57.8189 210.954 58.2441 212.075C59.085 214.294 59.9608 216.948 60.6068 219.012C60.9796 220.204 62.3466 220.812 63.5539 220.494C65.0766 220.092 67.3698 219.683 71.2102 219.203C68.9086 222.71 67.0072 225.315 65.9064 226.618C63.6665 229.367 62.0004 231.333 60.2302 232.478C59.1972 233.145 58.5424 234.454 58.9852 235.601C59.819 237.762 60.7059 240.347 61.3229 242.401C61.7046 243.672 63.1854 244.365 64.4501 243.963C67.3368 243.044 72.8075 241.898 86.0209 239.645C86.1206 240.111 86.2314 240.566 86.3422 241.006C86.6562 242.253 88.0499 242.966 89.2314 242.457L95.5278 239.745V259.285C94.3269 254.475 92.4256 248.363 90.6243 243.352L81.918 246.459C83.8193 252.471 86.0209 260.387 86.8215 265.598L95.5278 262.191V275.518H108.237V196.757H137.458V261.69C137.458 262.993 137.058 263.393 135.757 263.494C134.556 263.494 130.853 263.494 127.851 263.293C128.904 265.543 130.006 268.926 130.709 271.922C131.172 273.897 132.884 275.433 134.912 275.374C139.593 275.239 143.137 274.731 145.964 273.113C149.367 271.009 150.367 267.802 150.367 261.79V194.231Z" fill="#06102B"/>
<path d="M192.798 240.346H231.126V243.853H192.798V240.346ZM192.798 226.618H231.126V230.125H192.798V226.618ZM192.798 212.99H231.126V216.497H192.798V212.99ZM237.137 254.776C242.66 254.776 247.137 250.299 247.137 244.776V212.068C247.137 206.545 242.66 202.068 237.137 202.068H218.917C219.417 200.665 219.917 199.262 220.418 197.759H253.842V184.532H169.581V197.759H203.606C203.406 199.162 203.205 200.665 202.905 202.068H187.587C182.064 202.068 177.587 206.545 177.587 212.068V244.776C177.587 250.299 182.064 254.776 187.587 254.776H191.397C184.092 258.283 173.884 262.091 165.578 264.095C167.612 266.008 170.025 268.604 172.139 271.066C174.29 273.569 177.684 274.748 180.826 273.74C190.259 270.716 201.084 266.327 208.809 262.291L199.603 254.776H224.421L215.514 262.391C224.088 265.44 233.047 269.582 239.514 273.015C242.192 274.436 245.441 274.375 247.983 272.723L258.645 265.798C252.141 262.692 241.533 258.383 231.626 254.776H237.137Z" fill="#06102B"/>
<path d="M308.181 210.986H276.758V221.808H308.181V214.092C310.883 216.698 314.085 220.606 315.486 222.81C327.595 216.698 330.898 206.276 331.398 196.657H340.705V204.272C340.705 215.696 342.806 220.706 353.814 220.706H358.317C360.519 220.706 362.821 220.606 364.322 219.804C363.921 216.497 363.621 211.487 363.421 207.88C362.12 208.381 359.718 208.681 358.217 208.681H355.315C354.214 208.681 354.014 207.379 354.014 204.473V193.229C354.014 187.706 349.537 183.229 344.014 183.229H328.188C322.665 183.229 318.188 187.706 318.188 193.229V193.951C318.188 199.963 317.288 206.276 308.181 211.086V210.986ZM312.284 196.657H294.571L300.576 193.45C299.245 190.075 296.735 185.282 294.3 181.236C293.778 180.368 292.68 180.049 291.764 180.483L282.162 185.033C284.064 188.54 286.265 192.949 287.766 196.657H272.455V207.98H312.284V196.657ZM308.481 224.814H276.758V235.636H308.481V224.814ZM344.908 236.839C342.506 241.248 339.604 245.056 336.001 248.363C331.798 245.056 328.296 241.148 325.694 236.839H344.908ZM295.872 258.584H289.167V250.367H295.872V258.584ZM355.315 222.81L351.813 223.311H310.383V236.839H320.49L312.484 239.645C315.887 245.958 319.79 251.469 324.393 256.279C319.589 258.684 314.185 260.487 308.281 261.79V248.943C308.281 243.42 303.804 238.943 298.281 238.943H286.959C281.436 238.943 276.959 243.42 276.959 248.943V274.115H289.167V270.107H308.281V264.496C310.383 267.802 312.484 272.111 313.585 275.117C322.091 272.913 329.597 269.907 336.201 265.798C340.989 268.795 346.336 271.231 352.285 273.107C355.881 274.242 359.668 272.373 361.677 269.181C363.513 266.263 365.644 263.331 367.424 261.489C360.419 260.287 354.014 258.283 348.41 255.778C353.68 250.112 357.87 243.065 360.933 234.448C362.543 229.92 360.164 225.056 355.804 223.036L355.315 222.81Z" fill="#06102B"/>
<path d="M424.365 196.657H404.551L410.555 193.45C409.224 190.075 406.714 185.282 404.28 181.236C403.757 180.368 402.66 180.049 401.743 180.483L392.142 185.033C394.043 188.54 396.245 192.949 397.746 196.657H381.534V207.98H424.365V196.657ZM420.162 221.808V210.986H385.837V221.808H420.162ZM419.962 224.814H385.837V235.636H419.962V224.814ZM407.953 250.367V258.584H398.246V250.367H407.953ZM420.362 248.943C420.362 243.42 415.885 238.943 410.362 238.943H396.037C390.514 238.943 386.037 243.42 386.037 248.943V274.115H398.246V270.107H420.362V248.943ZM473 212.89H455.487V182.027H440.276V212.89H423.865V227.219H440.276V275.418H455.487V227.219H473V212.89Z" fill="#06102B"/>
</svg>
