<svg width="104" height="48" viewBox="0 0 104 48" fill="none" xmlns="http://www.w3.org/2000/svg">
<g filter="url(#filter0_d_224_35100)">
<path d="M12.0066 33.4266H22.8641C22.6433 32.6841 22.5229 31.9215 22.5229 31.1187C22.5229 26.7436 26.0551 23.2114 30.4302 23.2114C34.8052 23.2114 38.3374 26.7436 38.3374 31.1187C38.3374 31.9415 38.217 32.7443 37.9762 33.4869L71.6924 33.6875C71.4315 32.8848 71.271 32.0218 71.271 31.1187C71.271 26.7436 74.8032 23.2114 79.1783 23.2114C83.5533 23.2114 87.0855 26.7436 87.0855 31.1187C87.0855 32.0218 86.925 32.8647 86.6641 33.6675L88.6911 33.1256C90.2966 32.7042 90.8987 31.9215 90.8987 31.9215C90.8987 31.9215 92.5042 29.9145 93.2066 25.7201C93.909 21.5256 89.9956 19.8197 89.9956 19.8197C89.9956 19.8197 86.2828 18.7561 82.9312 17.572C81.7873 17.0903 80.9644 14.5616 83.172 13.4176C85.48 12.2135 86.0219 12.5145 85.8212 12.0128C85.6268 11.5269 84.9617 10.9468 84.9201 10.9108C85.0005 10.9096 85.0802 10.909 85.1589 10.909H84.918C84.918 10.909 84.9187 10.9096 84.9201 10.9108C83.1542 10.9369 80.9861 11.2625 79.2585 12.4142C77.4724 13.6183 74.3616 14.1803 74.3616 14.1803C73.0371 13.9194 71.5921 13.819 69.7658 13.819C66.6952 13.819 60.835 19.5588 55.6571 20.3215C52.9478 20.7228 39.7423 20.7228 37.2336 20.0204C34.725 19.318 30.1291 19.1173 26.617 19.9201C26.316 19.9803 16.3014 22.228 14.0135 25.3187C12.1873 27.7471 9.9997 30.8176 9.9997 30.8176L12.0066 33.4266Z" fill="white"/>
<path d="M72.5755 31.1187C72.5755 27.4661 75.5257 24.5159 79.1783 24.5159C82.8308 24.5159 85.781 27.4661 85.781 31.1187C85.781 34.7713 82.8308 37.7215 79.1783 37.7215C75.5257 37.7215 72.5755 34.7713 72.5755 31.1187Z" fill="white"/>
<path d="M23.8274 31.1187C23.8274 27.4661 26.7776 24.5159 30.4302 24.5159C34.0828 24.5159 37.0329 27.4661 37.0329 31.1187C37.0329 34.7713 34.0828 37.7215 30.4302 37.7215C26.7776 37.7215 23.8274 34.7713 23.8274 31.1187Z" fill="white"/>
<path d="M54.0917 19.2578C60.3935 18.455 65.9727 13.0163 65.9727 13.0163C44.3582 11.0093 38.0565 19.017 38.0565 19.017C38.0565 19.017 47.79 20.0606 54.0917 19.2578Z" fill="white"/>
</g>
<defs>
<filter id="filter0_d_224_35100" x="0" y="0.908997" width="103.291" height="46.8124" filterUnits="userSpaceOnUse" color-interpolation-filters="sRGB">
<feFlood flood-opacity="0" result="BackgroundImageFix"/>
<feColorMatrix in="SourceAlpha" type="matrix" values="0 0 0 0 0 0 0 0 0 0 0 0 0 0 0 0 0 0 127 0" result="hardAlpha"/>
<feOffset/>
<feGaussianBlur stdDeviation="5"/>
<feComposite in2="hardAlpha" operator="out"/>
<feColorMatrix type="matrix" values="0 0 0 0 1 0 0 0 0 1 0 0 0 0 1 0 0 0 0.6 0"/>
<feBlend mode="normal" in2="BackgroundImageFix" result="effect1_dropShadow_224_35100"/>
<feBlend mode="normal" in="SourceGraphic" in2="effect1_dropShadow_224_35100" result="shape"/>
</filter>
</defs>
</svg>
