<svg width="374" height="58" viewBox="0 0 374 58" fill="none" xmlns="http://www.w3.org/2000/svg">
<path d="M43.384 9.4H45.384V7.4H43.384V9.4ZM18.808 9.4V7.4H16.808V9.4H18.808ZM18.808 16.648H16.808V18.648H18.808V16.648ZM34.744 16.648H36.744V14.648H34.744V16.648ZM11.704 26.152H13.704V24.152H11.704V26.152ZM3.064 26.152V24.152H1.064V26.152H3.064ZM43.384 7.4H18.808V11.4H43.384V7.4ZM16.808 9.4V16.648H20.808V9.4H16.808ZM18.808 18.648H34.744V14.648H18.808V18.648ZM32.744 16.648V26.152H36.744V16.648H32.744ZM32.744 26.152C32.744 28.3668 32.4165 30.2846 31.2765 31.6637C30.1967 32.97 28.0062 34.232 23.224 34.232V38.232C28.6658 38.232 32.2353 36.782 34.3595 34.2123C36.4235 31.7154 36.744 28.5932 36.744 26.152H32.744ZM23.224 34.232C18.4361 34.232 16.2471 32.9789 15.1696 31.6794C14.0327 30.3083 13.704 28.3942 13.704 26.152H9.704C9.704 28.6138 10.0233 31.7397 12.0904 34.2326C14.2169 36.7971 17.7879 38.232 23.224 38.232V34.232ZM11.704 24.152H3.064V28.152H11.704V24.152ZM1.064 26.152C1.064 32.3614 2.75351 37.3451 6.65077 40.7199C10.4869 44.0418 16.0977 45.48 23.224 45.48V41.48C16.5263 41.48 12.0571 40.1102 9.26924 37.6961C6.54249 35.3349 5.064 31.6546 5.064 26.152H1.064ZM23.224 45.48C30.3318 45.48 35.9399 44.0275 39.7794 40.7017C43.679 37.324 45.384 32.3438 45.384 26.152H41.384C41.384 31.6242 39.897 35.308 37.1606 37.6783C34.3641 40.1005 29.8922 41.48 23.224 41.48V45.48ZM45.384 26.152V9.4H41.384V26.152H45.384ZM71.1846 45.48C78.7829 45.48 84.619 43.8911 88.5705 40.512C92.5841 37.0798 94.3046 32.1065 94.3046 26.152H90.3046C90.3046 31.3335 88.8332 35.0242 85.9708 37.472C83.0463 39.9729 78.3223 41.48 71.1846 41.48V45.48ZM94.3046 26.152C94.3046 20.2186 92.5822 15.2676 88.5658 11.8541C84.6143 8.49556 78.7798 6.92 71.1846 6.92V10.92C78.3254 10.92 83.051 12.4164 85.9754 14.9019C88.8351 17.3324 90.3046 20.9974 90.3046 26.152H94.3046ZM71.1846 6.92C63.5705 6.92 57.7336 8.48144 53.7856 11.8359C49.7714 15.2466 48.0646 20.2011 48.0646 26.152H52.0646C52.0646 20.9669 53.5259 17.3054 56.3756 14.8841C59.2916 12.4066 64.0148 10.92 71.1846 10.92V6.92ZM48.0646 26.152C48.0646 32.1241 49.7695 37.1008 53.781 40.5302C57.7289 43.9053 63.5674 45.48 71.1846 45.48V41.48C64.0179 41.48 59.2963 39.9827 56.3802 37.4898C53.5277 35.0512 52.0646 31.3639 52.0646 26.152H48.0646ZM71.1846 34.232C66.8521 34.232 64.3116 33.4515 62.8549 32.2442C61.4915 31.1141 60.7046 29.2872 60.7046 26.152H56.7046C56.7046 29.9288 57.6698 33.1419 60.3024 35.3238C62.8417 37.4285 66.5411 38.232 71.1846 38.232V34.232ZM60.7046 26.152C60.7046 23.0376 61.4809 21.2409 62.8309 20.1308C64.2798 18.9393 66.8201 18.168 71.1846 18.168V14.168C66.5252 14.168 62.8254 14.9567 60.2904 17.0412C57.6563 19.2071 56.7046 22.4024 56.7046 26.152H60.7046ZM71.1846 18.168C75.5432 18.168 78.0848 18.9492 79.5356 20.1465C80.8903 21.2646 81.6646 23.0656 81.6646 26.152H85.6646C85.6646 22.4224 84.7109 19.2314 82.0817 17.0615C79.5484 14.9708 75.85 14.168 71.1846 14.168V18.168ZM81.6646 26.152C81.6646 29.2593 80.8798 31.0904 79.5116 32.2284C78.0531 33.4417 75.5112 34.232 71.1846 34.232V38.232C75.8341 38.232 79.5321 37.4143 82.0696 35.3036C84.6975 33.1176 85.6646 29.9087 85.6646 26.152H81.6646ZM107.931 9.4H109.931V7.4H107.931V9.4ZM99.2909 9.4V7.4H97.2909V9.4H99.2909ZM99.2909 43H97.2909V45H99.2909V43ZM107.931 43V45H109.931V43H107.931ZM107.931 7.4H99.2909V11.4H107.931V7.4ZM97.2909 9.4V43H101.291V9.4H97.2909ZM99.2909 45H107.931V41H99.2909V45ZM109.931 43V9.4H105.931V43H109.931ZM150.256 9.4V7.4H148.256V9.4H150.256ZM150.256 34.648L148.775 35.9931L152.256 39.8227V34.648H150.256ZM127.312 9.4L128.792 8.05493L128.197 7.4H127.312V9.4ZM115.6 9.4V7.4H113.6V9.4H115.6ZM115.6 43H113.6V45H115.6V43ZM124.24 43V45H126.24V43H124.24ZM124.24 17.8L125.72 16.4551L122.24 12.6246V17.8H124.24ZM147.136 43L145.655 44.3449L146.251 45H147.136V43ZM158.896 43V45H160.896V43H158.896ZM158.896 9.4H160.896V7.4H158.896V9.4ZM148.256 9.4V34.648H152.256V9.4H148.256ZM151.736 33.3029L128.792 8.05493L125.831 10.7451L148.775 35.9931L151.736 33.3029ZM127.312 7.4H115.6V11.4H127.312V7.4ZM113.6 9.4V43H117.6V9.4H113.6ZM115.6 45H124.24V41H115.6V45ZM126.24 43V17.8H122.24V43H126.24ZM122.759 19.1449L145.655 44.3449L148.616 41.6551L125.72 16.4551L122.759 19.1449ZM147.136 45H158.896V41H147.136V45ZM160.896 43V9.4H156.896V43H160.896ZM158.896 7.4H150.256V11.4H158.896V7.4ZM234.895 9.4H236.895V7.4H234.895V9.4ZM226.255 9.4V7.4H224.255V9.4H226.255ZM201.295 9.4H203.295V7.4H201.295V9.4ZM192.655 9.4V7.4H190.655V9.4H192.655ZM236.895 26.152V9.4H232.895V26.152H236.895ZM234.895 7.4H226.255V11.4H234.895V7.4ZM224.255 9.4V26.152H228.255V9.4H224.255ZM224.255 26.152C224.255 28.363 223.927 30.2436 222.714 31.6096C221.531 32.9408 219.09 34.232 213.775 34.232V38.232C219.643 38.232 223.443 36.8112 225.704 34.2664C227.934 31.7564 228.255 28.597 228.255 26.152H224.255ZM213.775 34.232C208.454 34.232 206.014 32.9501 204.834 31.6253C203.623 30.2672 203.295 28.3905 203.295 26.152H199.295C199.295 28.6175 199.614 31.7808 201.848 34.2867C204.111 36.8259 207.911 38.232 213.775 38.232V34.232ZM203.295 26.152V9.4H199.295V26.152H203.295ZM201.295 7.4H192.655V11.4H201.295V7.4ZM190.655 9.4V26.152H194.655V9.4H190.655ZM190.655 26.152C190.655 32.3638 192.347 37.3653 196.388 40.7427C200.349 44.0526 206.196 45.48 213.775 45.48V41.48C206.57 41.48 201.856 40.0994 198.953 37.6733C196.131 35.3147 194.655 31.6522 194.655 26.152H190.655ZM213.775 45.48C221.335 45.48 227.179 44.0386 231.143 40.7245C235.187 37.3441 236.895 32.3463 236.895 26.152H232.895C232.895 31.6217 231.41 35.2879 228.578 37.6555C225.666 40.0894 220.95 41.48 213.775 41.48V45.48ZM241.858 31.432V29.432H239.858V31.432H241.858ZM263.314 22.744L263.197 24.7406L263.206 24.7411L263.314 22.744ZM274.69 20.392H272.69V22.392H274.69V20.392ZM283.33 20.392V22.392H285.33V20.392H283.33ZM263.314 29.176L263.411 27.1783L263.406 27.1781L263.314 29.176ZM250.498 31.432H252.498V29.432H250.498V31.432ZM239.858 31.432C239.858 34.1416 240.434 36.493 241.658 38.4609C242.883 40.4326 244.665 41.8678 246.823 42.8972C251.038 44.9073 256.936 45.48 263.842 45.48V41.48C256.973 41.48 251.879 40.8767 248.545 39.2868C246.93 38.5162 245.798 37.5454 245.055 36.3491C244.309 35.149 243.858 33.5704 243.858 31.432H239.858ZM263.842 45.48C270.066 45.48 275.667 45.0386 279.757 43.284C281.847 42.3874 283.637 41.1095 284.894 39.2915C286.157 37.4641 286.77 35.2508 286.77 32.68H282.77C282.77 34.5972 282.322 35.9779 281.603 37.017C280.879 38.0655 279.768 38.9266 278.18 39.608C274.913 41.0094 270.051 41.48 263.842 41.48V45.48ZM286.77 32.68C286.77 30.2213 286.17 28.1255 284.868 26.4275C283.582 24.7508 281.764 23.6599 279.687 22.9138C275.643 21.4611 269.943 21.1013 263.423 20.7469L263.206 24.7411C269.933 25.1067 274.962 25.4669 278.334 26.6782C279.965 27.2641 281.026 27.9912 281.694 28.8615C282.345 29.7105 282.77 30.8907 282.77 32.68H286.77ZM263.432 20.7475C258.452 20.4545 255.766 20.1943 254.311 19.7596C253.617 19.5524 253.501 19.3854 253.523 19.4129C253.581 19.4841 253.506 19.4892 253.506 19.096H249.506C249.506 19.9988 249.684 21.0359 250.426 21.9441C251.132 22.8085 252.132 23.2836 253.166 23.5924C255.166 24.1897 258.384 24.4575 263.197 24.7405L263.432 20.7475ZM253.506 19.096C253.506 18.9148 253.525 18.8143 253.538 18.7666C253.544 18.7441 253.549 18.7336 253.55 18.731C253.552 18.7289 253.552 18.7287 253.552 18.7282C253.553 18.7275 253.558 18.7202 253.573 18.7067C253.589 18.6927 253.617 18.6698 253.664 18.64C253.76 18.5787 253.927 18.4941 254.202 18.4035C255.418 18.003 257.73 17.784 262.018 17.784V13.784C257.811 13.784 254.867 13.973 252.95 14.6045C251.944 14.9362 251.01 15.4544 250.356 16.3228C249.689 17.2096 249.506 18.2041 249.506 19.096H253.506ZM262.018 17.784C266.533 17.784 269.388 18.0259 271.081 18.5971C271.888 18.8694 272.247 19.1586 272.414 19.3661C272.556 19.5426 272.69 19.8196 272.69 20.392H276.69C276.69 19.1164 276.363 17.8934 275.531 16.8594C274.725 15.8564 273.598 15.2246 272.359 14.8069C269.961 13.9981 266.48 13.784 262.018 13.784V17.784ZM274.69 22.392H283.33V18.392H274.69V22.392ZM285.33 20.392C285.33 17.9966 284.772 15.8618 283.627 14.0341C282.485 12.2121 280.834 10.8148 278.832 9.76921C274.894 7.71219 269.411 6.92 262.978 6.92V10.92C269.217 10.92 273.911 11.7118 276.981 13.3148C278.482 14.0992 279.544 15.0509 280.238 16.1584C280.928 17.2602 281.33 18.6354 281.33 20.392H285.33ZM262.978 6.92C256.642 6.92 251.261 7.50058 247.405 9.18768C245.443 10.0461 243.781 11.2309 242.615 12.858C241.436 14.5029 240.866 16.4574 240.866 18.664H244.866C244.866 17.1746 245.239 16.0631 245.866 15.188C246.506 14.2951 247.514 13.5059 249.008 12.8523C252.064 11.5154 256.739 10.92 262.978 10.92V6.92ZM240.866 18.664C240.866 20.8036 241.28 22.7435 242.289 24.4217C243.303 26.1085 244.816 27.3604 246.723 28.2913C250.418 30.095 255.916 30.8385 263.223 31.1739L263.406 27.1781C256.073 26.8415 251.346 26.097 248.478 24.6967C247.103 24.0256 246.249 23.2465 245.717 22.3608C245.179 21.4664 244.866 20.2924 244.866 18.664H240.866ZM263.218 31.1737C268.756 31.442 271.686 31.6932 273.251 32.1469C273.996 32.3626 274.111 32.5413 274.089 32.5126C274.043 32.4541 274.13 32.4817 274.13 32.968H278.13C278.13 32.0623 277.978 30.9859 277.231 30.0379C276.508 29.1197 275.463 28.6234 274.365 28.3051C272.246 27.6908 268.769 27.438 263.411 27.1783L263.218 31.1737ZM274.13 32.968C274.13 33.2549 274.068 33.32 274.041 33.352C273.974 33.4305 273.734 33.6483 273.019 33.8772C271.532 34.3531 268.869 34.616 264.322 34.616V38.616C268.848 38.616 272.089 38.3749 274.238 37.6868C275.341 37.3337 276.352 36.8045 277.081 35.9515C277.85 35.0519 278.13 34.0011 278.13 32.968H274.13ZM264.322 34.616C258.852 34.616 255.752 34.1937 254.062 33.5042C253.27 33.1809 252.935 32.8559 252.776 32.6206C252.621 32.3901 252.498 32.0474 252.498 31.432H248.498C248.498 32.5926 248.736 33.7859 249.462 34.8604C250.185 35.9301 251.255 36.6791 252.551 37.2078C255.037 38.2223 258.849 38.616 264.322 38.616V34.616ZM250.498 29.432H241.858V33.432H250.498V29.432Z" fill="url(#paint0_linear_21096_3476)"/>
<path d="M330.25 17.1092C330.525 16.3679 331.573 16.3679 331.847 17.1092L334.708 24.8384C334.794 25.0715 334.978 25.2552 335.211 25.3415L342.94 28.2016C343.681 28.4759 343.681 29.5243 342.94 29.7986L335.211 32.6587C334.978 32.7449 334.794 32.9287 334.708 33.1617L331.847 40.891C331.573 41.6323 330.525 41.6323 330.25 40.891L327.39 33.1617C327.304 32.9287 327.12 32.7449 326.887 32.6587L319.158 29.7986C318.417 29.5243 318.417 28.4759 319.158 28.2016L326.887 25.3415C327.12 25.2552 327.304 25.0715 327.39 24.8384L330.25 17.1092Z" fill="url(#paint1_linear_21096_3476)"/>
<defs>
<linearGradient id="paint0_linear_21096_3476" x1="144" y1="0" x2="144" y2="58" gradientUnits="userSpaceOnUse">
<stop stop-color="#9FA6FF"/>
<stop offset="1" stop-color="#55FFAD"/>
</linearGradient>
<linearGradient id="paint1_linear_21096_3476" x1="331.049" y1="14.9512" x2="331.049" y2="43.049" gradientUnits="userSpaceOnUse">
<stop stop-color="#9FA6FF"/>
<stop offset="1" stop-color="#55FFAD"/>
</linearGradient>
</defs>
</svg>
