<svg width="561" height="224" viewBox="0 0 561 224" fill="none" xmlns="http://www.w3.org/2000/svg">
<g filter="url(#filter0_d_224_34988)">
<path fill-rule="evenodd" clip-rule="evenodd" d="M86.1218 14.5012C41.9898 14.9063 7.38107 52.5155 10.6383 96.529C13.4598 134.655 43.804 164.168 80.7806 167.055C79.1571 176.13 75.8564 186.836 73.011 196.065C71.3041 201.602 69.7611 206.607 68.8422 210.409C67.012 217.983 77.9627 208.467 93.4278 195.028C104.834 185.116 118.697 173.069 131.698 164.172L491.531 137.542C526.895 134.925 553.248 103.831 550.032 68.5171C547.037 35.6193 519.299 10.5249 486.266 10.8281L86.1218 14.5012Z" fill="#9DA4FF"/>
</g>
<defs>
<filter id="filter0_d_224_34988" x="0.425781" y="0.825378" width="559.872" height="222.267" filterUnits="userSpaceOnUse" color-interpolation-filters="sRGB">
<feFlood flood-opacity="0" result="BackgroundImageFix"/>
<feColorMatrix in="SourceAlpha" type="matrix" values="0 0 0 0 0 0 0 0 0 0 0 0 0 0 0 0 0 0 127 0" result="hardAlpha"/>
<feOffset/>
<feGaussianBlur stdDeviation="5"/>
<feComposite in2="hardAlpha" operator="out"/>
<feColorMatrix type="matrix" values="0 0 0 0 0.615686 0 0 0 0 0.643137 0 0 0 0 1 0 0 0 0.6 0"/>
<feBlend mode="normal" in2="BackgroundImageFix" result="effect1_dropShadow_224_34988"/>
<feBlend mode="normal" in="SourceGraphic" in2="effect1_dropShadow_224_34988" result="shape"/>
</filter>
</defs>
</svg>
