<svg width="561" height="244" viewBox="0 0 561 244" fill="none" xmlns="http://www.w3.org/2000/svg">
<g filter="url(#filter0_d_224_35004)">
<path fill-rule="evenodd" clip-rule="evenodd" d="M86.1218 34.5012C41.9898 34.9063 7.38107 72.5155 10.6383 116.529C13.4598 154.655 43.804 184.168 80.7806 187.055C79.1571 196.13 75.8564 206.836 73.011 216.065C71.3041 221.602 69.7611 226.607 68.8422 230.409C67.012 237.983 77.9627 228.467 93.4278 215.028C104.834 205.116 118.697 193.069 131.698 184.172L491.531 157.542C526.895 154.925 553.248 123.831 550.032 88.5171C547.037 55.6193 519.299 30.5249 486.266 30.8281L86.1218 34.5012Z" fill="#9DA4FF"/>
</g>
<path d="M48.2692 122.931L48.0981 120.016L53.1294 119.72L53.3005 122.635L48.2692 122.931ZM47.8145 115.184L52.8458 114.889L53.0146 117.764L47.9833 118.059L47.8145 115.184ZM60.7522 114.424L60.921 117.3L55.69 117.607L55.5212 114.732L60.7522 114.424ZM61.2069 122.171L55.9759 122.478L55.8048 119.563L61.0358 119.256L61.2069 122.171ZM70.9963 109.416C70.9121 106.616 70.7387 103.661 70.5629 100.666L67.7677 100.83C67.9458 103.865 68.1169 106.78 68.2011 109.58L63.4493 109.859L63.6134 112.654L68.2853 112.38C68.3666 119.908 67.7058 126.398 64.5083 131.313L64.4966 131.114C61.8399 131.59 59.141 132.029 56.5595 132.421L56.3744 129.266L64.2009 128.807L64.0673 126.531L56.2408 126.99L56.0978 124.555L63.8445 124.1L63.1484 112.24L55.4017 112.695L55.254 110.179L63.7195 109.682L63.5835 107.366L55.1181 107.863L54.947 104.948C57.8432 104.458 60.5375 103.939 62.6656 103.333L61.0546 101.144C56.9956 102.304 49.8501 103.444 43.959 104.111C44.3136 104.691 44.6494 105.633 44.8067 106.265C47.158 106.047 49.7441 105.735 52.288 105.385L52.4427 108.02L43.8175 108.527L43.9535 110.843L52.5786 110.336L52.7263 112.852L45.2592 113.29L45.9553 125.15L53.4224 124.712L53.5654 127.147L46.0184 127.59L46.152 129.867L53.699 129.424L53.9006 132.858C50.6449 133.369 47.6665 133.825 45.2823 134.165L45.8739 136.735C50.3181 135.993 56.4676 134.951 62.495 133.876C61.9641 134.388 61.4332 134.9 60.82 135.376C61.5669 135.813 62.6637 136.751 63.1405 137.364C69.859 131.681 71.1849 122.868 71.0406 112.218L76.7508 111.883C77.2023 126.401 77.0325 131.7 76.182 132.912C75.8132 133.455 75.4608 133.596 74.782 133.635C74.0233 133.68 72.264 133.743 70.3379 133.696C70.8217 134.429 71.2138 135.648 71.3405 136.442C73.1844 136.454 75.0635 136.384 76.1722 136.158C77.3631 135.968 78.143 135.602 78.7609 134.524C80.0201 132.767 80.0537 127.195 79.5109 110.438C79.4875 110.039 79.4618 108.919 79.4618 108.919L70.9963 109.416ZM85.784 134.713L121.403 132.622L121.279 130.506L85.6598 132.596L85.784 134.713ZM113.498 123.55L104.233 124.093L104.114 122.057L113.378 121.513L113.498 123.55ZM113.72 127.343L104.456 127.887L104.332 125.77L113.596 125.227L113.72 127.343ZM92.7119 126.452L101.577 125.932L101.701 128.048L92.8362 128.569L92.7119 126.452ZM92.494 122.739L101.359 122.218L101.478 124.255L92.6135 124.775L92.494 122.739ZM89.558 121.188L90.1018 130.452L116.816 128.884L116.272 119.62L89.558 121.188ZM103.28 106.479L112.424 105.942L112.553 108.138L103.409 108.675L103.28 106.479ZM103.05 102.566L112.194 102.029L112.314 104.065L103.17 104.602L103.05 102.566ZM103.868 116.502L103.746 114.425L117.403 113.624L117.292 111.747L103.636 112.548L103.516 110.512L115.616 109.802L115.379 105.769L119.691 105.516L119.581 103.639L115.269 103.892L115.041 100.019L102.942 100.729L102.797 98.253L99.842 98.4265L99.9873 100.902L88.1277 101.598L88.2355 103.435L100.095 102.739L100.215 104.776L84.1623 105.718L84.2724 107.595L100.325 106.652L100.454 108.849L88.3545 109.559L88.4624 111.396L100.562 110.685L100.681 112.722L87.6235 113.488L87.7337 115.365L100.791 114.599L100.913 116.675L84.7809 117.622L84.9028 119.698L120.521 117.608L120.4 115.531L103.868 116.502ZM137.044 113.753C135.592 114.279 134.101 114.807 132.687 115.291L132.223 107.385L136.655 107.124L136.491 104.329L132.058 104.589L131.59 96.6031L128.675 96.7742L129.143 104.76L124.032 105.06L124.196 107.856L129.308 107.556L129.818 116.261C127.737 116.984 125.849 117.576 124.273 118.029L125.282 120.894L129.992 119.216L130.604 129.638C130.636 130.197 130.449 130.408 129.85 130.443C129.373 130.511 127.656 130.612 125.737 130.685C126.183 131.46 126.69 132.592 126.854 133.344C129.572 133.224 131.244 133.046 132.215 132.508C133.225 131.968 133.617 131.144 133.519 129.467L132.855 118.166C134.385 117.595 135.994 117.02 137.563 116.447L137.044 113.753ZM154.83 112.989C153.606 116.708 151.55 119.914 148.94 122.551C146.274 120.143 144.093 117.106 142.531 113.711L154.83 112.989ZM156.538 110.004L156.066 110.152L149.717 110.525L149.367 104.575L158.911 104.015L158.749 101.26L149.206 101.82L148.838 95.5506L145.923 95.7217L146.291 101.991L136.947 102.539L137.108 105.295L146.452 104.746L146.802 110.696L138.256 111.198L138.418 113.953L139.736 113.875L139.618 113.922C141.426 118.104 143.838 121.648 146.809 124.479C143.713 127.025 140.098 128.92 136.286 130.186C136.882 130.792 137.674 131.987 138.04 132.767C142.038 131.25 145.803 129.186 149.045 126.391C152.152 128.814 155.819 130.522 160.047 131.556C160.439 130.731 161.21 129.524 161.813 128.888C157.757 128.044 154.222 126.528 151.209 124.341C154.608 120.816 157.188 116.297 158.544 110.728L156.538 110.004ZM196.328 110.033C197.765 109.948 199.198 109.784 199.868 109.585C199.708 108.913 199.523 107.802 199.396 107.008C198.649 107.252 197.054 107.386 196.096 107.442L188.748 107.873C187.47 107.948 187.123 107.488 187.039 106.05L186.774 101.538L197.515 100.908L197.36 98.2721L186.619 98.9026L186.296 93.392L183.381 93.5631L184.119 106.141C184.316 109.496 185.347 110.677 188.861 110.471L196.328 110.033ZM170.163 114.814C172.397 116.005 175.26 117.68 176.725 118.756L178.226 117.025C176.723 115.992 173.823 114.359 171.634 113.245L170.163 114.814ZM169.623 111.079L177.889 110.594L178.363 118.66C175.262 120.445 172.201 122.227 170.023 123.357C170.16 121.586 170.137 119.824 170.048 118.307L169.623 111.079ZM180.574 107.872L166.718 108.685L167.29 118.429C167.489 121.823 167.496 126.03 165.398 129.198C166.02 129.562 167.119 130.54 167.556 131.155C169.111 128.98 169.748 126.178 169.993 123.519L171.172 125.854C173.333 124.445 175.957 122.728 178.501 121.016L178.862 127.166C178.892 127.685 178.782 127.852 178.223 127.884C177.704 127.915 176.069 128.051 174.147 128.083C174.589 128.779 175.047 129.754 175.251 130.503C177.727 130.358 179.481 130.215 180.454 129.717C181.506 129.214 181.786 128.517 181.697 126.999L180.574 107.872ZM175.018 97.8605C175.929 99.0492 176.847 100.358 177.726 101.668L169.573 102.708C171.407 100.517 173.167 97.7288 174.692 95.0348L171.678 94.2099C170.191 97.5428 167.745 100.932 167.036 101.815C166.287 102.7 165.643 103.339 165.011 103.497C165.413 104.194 165.939 105.646 166.133 106.236C167.026 105.742 168.414 105.501 179.184 103.987C179.762 104.955 180.255 105.847 180.621 106.627L183.109 105.319C181.972 103.022 179.476 99.402 177.36 96.8015L175.018 97.8605ZM190.496 126.723C188.619 126.833 188.246 126.615 188.168 125.297L187.817 119.307L198.997 118.651L198.84 115.976L187.66 116.632L187.381 111.88L184.466 112.051L185.253 125.468C185.445 128.743 186.498 129.602 190.371 129.375L197.439 128.96C200.753 128.766 201.552 127.356 201.607 122.144C200.796 121.991 199.612 121.62 198.906 121.181C198.957 125.465 198.722 126.24 197.045 126.339L190.496 126.723ZM220.619 101.314L215.747 101.6L215.89 104.036L228.189 103.314L228.046 100.879L223.214 101.162L223.01 97.6881L228.76 97.3506L228.617 94.9148L222.867 95.2523L222.633 91.2592L220.037 91.4115L220.272 95.4046L214.562 95.7398L214.705 98.1756L220.415 97.8404L220.619 101.314ZM225.797 112.39L219.288 112.772L219.018 108.18L225.527 107.798L225.797 112.39ZM227.996 105.489L216.416 106.169L216.941 115.114L228.521 114.434L227.996 105.489ZM222 122.109C221.706 120.524 220.751 117.895 219.832 115.906L217.551 116.641C218.432 118.672 219.27 121.348 219.526 122.976L222 122.109ZM216.021 112.403C215.398 111.358 212.667 107.15 211.622 105.729L211.477 103.253L215.07 103.043L214.911 100.327L211.317 100.538L210.811 91.913L208.215 92.0653L208.722 100.69L204.01 100.967L204.169 103.682L208.642 103.42C207.962 108.909 206.218 115.382 204.259 118.863C204.773 119.434 205.515 120.472 205.837 121.175C207.207 118.57 208.41 114.492 209.284 110.274L210.353 128.483L212.949 128.33L211.824 109.163C212.897 111.064 214.118 113.436 214.672 114.686L216.021 112.403ZM226.427 122.45C227.078 120.569 227.776 118.124 228.366 115.886L225.611 115.366C225.296 117.508 224.483 120.721 223.799 122.725L224.449 122.887C220.966 123.612 217.76 124.281 215.382 124.742L216.256 127.335C220.249 126.419 225.788 125.213 231.045 123.982L230.74 121.516L226.427 122.45ZM234.637 115.557C234.255 113.136 232.978 109.124 231.634 106.037L229.433 106.767C230.739 109.896 231.903 114.035 232.291 116.537L234.637 115.557ZM240.051 99.2522L237.615 99.3952L237.093 90.4905L234.338 90.6523L234.86 99.5569L228.871 99.9085L229.03 102.624L235.02 102.272L236.267 123.516C236.299 124.075 236.109 124.246 235.632 124.314C235.076 124.387 233.438 124.483 231.637 124.509C232.081 125.244 232.557 126.538 232.719 127.25C235.195 127.105 236.827 126.929 237.838 126.389C238.768 125.853 239.118 124.991 239.022 123.354L237.775 102.111L240.211 101.968L240.051 99.2522ZM279.571 101.5L279.395 98.5056L262.864 99.4759C263.08 95.6567 262.907 92.0206 262.764 88.9036L259.609 89.0888C259.748 92.1259 260.003 95.7972 259.789 99.6564L244.415 100.559L244.591 103.554L259.485 102.679C258.512 110.67 255.115 119.004 244.873 124.052C245.746 124.602 246.728 125.626 247.212 126.359C251.762 124.009 254.994 121.054 257.323 117.712C260.134 119.871 263.476 122.88 265.075 124.87L267.476 122.766C265.712 120.705 262.128 117.67 259.242 115.596L258.131 116.462C260.513 112.676 261.754 108.557 262.393 104.432C265.995 113.917 271.549 121.164 279.721 124.531C280.191 123.662 281.076 122.368 281.797 121.685C273.652 118.757 267.976 111.477 264.716 102.372L279.571 101.5ZM314.993 91.9685C314.465 90.4769 313.129 88.1912 311.908 86.4999L309.406 87.5683C310.552 89.3442 311.85 91.6721 312.381 93.2036L314.993 91.9685ZM301.114 91.0201L294.725 91.3951L295.077 91.2542C294.57 90.122 293.511 88.4612 292.59 87.1128L289.964 88.1084C290.624 89.1115 291.385 90.4692 291.93 91.5592L283.744 92.0397L283.901 94.7151L301.271 93.6955L301.114 91.0201ZM292.492 101.824C291.842 100.981 290.616 99.8905 289.439 98.9578C289.733 97.8187 289.984 96.6419 290.191 95.3876L287.689 95.0937C287.118 99.0139 285.852 102.694 283.756 105.222C284.376 105.546 285.428 106.406 285.814 106.824C287.047 105.309 288.015 103.369 288.769 101.201C289.662 102.07 290.512 102.902 291.033 103.592L292.492 101.824ZM288.582 113.713C287.966 116.194 286.874 118.742 285.38 120.593C286.035 120.835 287.151 121.411 287.693 121.779C289.14 119.811 290.411 116.892 291.128 114.085L288.582 113.713ZM296.965 113.862C298.367 115.904 299.973 118.694 300.68 120.496L302.978 119.36C302.233 117.6 300.594 114.932 299.154 112.933L296.965 113.862ZM295.071 105.479L293.713 105.559C294.721 104.298 295.592 102.764 296.255 101.082C297.577 102.447 298.909 103.972 299.613 105.052L301.364 103.467C300.448 102.198 298.653 100.3 297.087 98.8696C297.418 97.6881 297.705 96.4291 297.949 95.1326L295.408 94.841C294.858 98.4394 293.537 101.883 291.47 104.208C292.01 104.537 292.846 105.129 293.354 105.58L292.275 105.643L292.44 108.438L284.533 108.902L284.688 111.538L292.594 111.074L293.326 123.532L296.121 123.368L295.389 110.91L302.497 110.493L302.343 107.857L295.235 108.274L295.071 105.479ZM307.145 112.544L312.376 112.237L312.7 117.747L307.469 118.054L307.145 112.544ZM311.755 101.655L306.524 101.962L306.213 96.651L311.444 96.344L311.755 101.655ZM312.224 109.641L306.993 109.948L306.674 104.517L311.905 104.21L312.224 109.641ZM321.085 117.255L315.375 117.59L315.052 112.08L320.163 111.78L320.011 109.184L314.899 109.484L314.581 104.053L319.652 103.756L319.502 101.2L314.431 101.498L314.119 96.1869L319.629 95.8635L319.47 93.1482L306.452 93.9123C307.202 91.6645 307.865 89.3016 308.328 86.9504L305.577 86.5108C304.494 91.9436 302.497 97.5102 299.948 101.186C300.61 101.548 301.784 102.44 302.294 102.931C302.808 102.14 303.241 101.313 303.711 100.444L305.03 122.925L307.745 122.766L307.628 120.77L321.245 119.97L321.085 117.255ZM357.825 90.5763L357.668 87.9009L331.873 89.415C332.676 88.0856 333.395 86.6811 333.994 85.2836L331.31 84.5997C329.623 88.6255 326.651 92.6065 323.437 95.1992C324.069 95.7231 325.058 96.8671 325.41 97.4074C327.047 95.949 328.626 94.1734 330.033 92.2076L357.825 90.5763ZM329.073 121.594C330.427 119.391 331.789 115.986 332.635 113.331L329.798 112.777C328.952 115.431 327.498 118.642 326.213 120.64L329.073 121.594ZM336.532 113.503C337.152 115.871 337.692 118.925 337.8 120.762L340.689 120.151C340.543 118.357 339.928 115.388 339.273 113.102L336.532 113.503ZM344.753 112.941C345.89 115.238 347.109 118.252 347.578 120.107L350.458 119.337C349.948 117.484 348.692 114.513 347.44 112.302L344.753 112.941ZM352.97 112.298C354.553 114.689 356.544 117.898 357.42 119.85L360.222 118.444C359.229 116.539 357.2 113.372 355.582 111.063L352.97 112.298ZM333.259 101.434L337.412 101.191L337.811 107.979L333.658 108.223L333.259 101.434ZM344.6 100.769L344.998 107.557L340.366 107.829L339.968 101.041L344.6 100.769ZM351.548 100.361L351.946 107.149L347.554 107.407L347.155 100.619L351.548 100.361ZM354.702 106.988L354.303 100.199L358.815 99.9344L358.658 97.259L354.146 97.5238L353.886 93.0914L351.131 93.2532L351.391 97.6855L346.998 97.9434L346.738 93.511L344.183 93.661L344.443 98.0934L339.811 98.3653L339.551 93.9329L336.995 94.0829L337.255 98.5153L333.102 98.759L332.842 94.3266L330.167 94.4837L330.427 98.9161L325.635 99.1973L325.792 101.873L330.584 101.591L330.982 108.38L324.873 108.738L325.03 111.414L360.169 109.351L360.012 106.676L354.702 106.988ZM386.768 92.1631C385.746 91.1412 383.816 89.6518 382.104 88.4701C382.672 86.5535 383.149 84.4419 383.462 82.2598L380.561 81.9893C379.797 88.0846 377.741 93.3341 374.18 96.8287C374.882 97.1882 376.063 98.2007 376.533 98.694C378.495 96.6155 380.062 93.9591 381.246 90.9245C382.838 92.1133 384.525 93.5369 385.464 94.5236L386.768 92.1631ZM370.858 82.5589C369.265 85.4572 365.953 89.0975 362.96 91.3568C363.509 91.8454 364.329 92.8391 364.764 93.4146C367.977 90.8219 371.475 86.9302 373.632 83.3978L370.858 82.5589ZM372.29 90.5687C370.18 94.8998 366.63 99.2753 363.153 102.164C363.67 102.775 364.671 104.118 364.985 104.701C366.432 103.414 367.863 101.847 369.247 100.164L370.367 119.251L373.122 119.089L371.812 96.7674C373.029 94.973 374.084 93.148 374.979 91.3325L372.29 90.5687ZM389.841 106.287L398.706 105.767L398.558 103.251L389.693 103.772L389.299 97.0632L387.742 97.1546C389.523 95.4073 390.961 93.2794 392.013 90.7333C394.416 92.756 397.002 95.1686 398.383 96.8506L400.3 94.6946C398.752 92.9022 395.628 90.2006 392.904 88.1567C393.508 86.1579 393.898 83.9312 394.119 81.5541L391.263 81.3612C390.75 87.642 388.797 92.6049 384.938 95.7966C385.516 96.0832 386.434 96.7105 387.063 97.1944L386.544 97.2249L387.524 113.916C384.938 112.866 382.925 110.66 381.479 106.498C381.693 104.682 381.818 102.711 381.813 100.588L378.966 100.555C378.994 107.846 377.912 113.318 374.036 116.912C374.701 117.313 375.957 118.241 376.385 118.697C378.502 116.529 379.869 113.885 380.687 110.751C383.669 116.507 387.906 117.7 393.856 117.351L400.485 116.962C400.52 116.199 400.884 114.895 401.246 114.233L393.859 114.666C392.621 114.739 391.418 114.729 390.328 114.593L389.841 106.287ZM438.926 84.4536L438.752 81.4987L403.493 83.5683L403.667 86.5232L418.92 85.6279L420.711 116.135L423.866 115.95L422.633 94.9464C427.328 97.115 432.871 100.075 435.717 102.152L437.637 99.3548C434.342 97.1441 427.861 93.9182 422.976 91.9211L422.492 92.5505L422.075 85.4427L438.926 84.4536ZM479.997 96.7482L463.625 97.7091L463.245 91.2403L477.381 90.4106L477.215 87.5754L463.079 88.4052L462.699 81.9363C467.378 81.1007 471.686 80.0865 475.019 78.8491L472.645 76.6244C466.766 78.8527 455.246 80.5706 445.848 81.563C446.168 82.2255 446.595 83.3624 446.762 84.154C450.863 83.7129 455.359 83.1685 459.723 82.4315L460.084 88.5809L446.348 89.3872L446.514 92.2223L460.25 91.4161L460.63 97.8849L444.218 98.8482L444.39 101.763L460.801 100.8L461.319 109.625C461.368 110.463 461.026 110.764 460.147 110.815C459.231 110.909 456.119 111.132 452.757 111.209C453.283 111.98 453.92 113.265 454.209 114.089C458.404 113.883 460.955 113.653 462.404 113.087C463.853 112.521 464.441 111.605 464.316 109.489L463.796 100.624L480.168 99.6632L479.997 96.7482ZM499.99 98.7801L503.265 98.5879C501.835 92.6615 511.306 90.8635 510.952 84.8339C510.682 80.2418 506.92 77.5777 501.289 77.9081C496.937 78.1636 493.93 80.1833 491.459 83.1332L493.732 85.0032C495.825 82.4361 498.351 81.0858 501.066 80.9264C505.139 80.6874 507.253 82.5667 507.414 85.322C507.682 89.8742 498.363 92.2242 499.99 98.7801ZM498.867 105.578C498.979 107.494 500.529 108.646 502.286 108.542C504.043 108.439 505.408 107.117 505.296 105.2C505.183 103.284 503.675 102.17 501.918 102.273C500.161 102.376 498.754 103.661 498.867 105.578Z" fill="#06102B"/>
<defs>
<filter id="filter0_d_224_35004" x="0.425781" y="20.8254" width="559.872" height="222.267" filterUnits="userSpaceOnUse" color-interpolation-filters="sRGB">
<feFlood flood-opacity="0" result="BackgroundImageFix"/>
<feColorMatrix in="SourceAlpha" type="matrix" values="0 0 0 0 0 0 0 0 0 0 0 0 0 0 0 0 0 0 127 0" result="hardAlpha"/>
<feOffset/>
<feGaussianBlur stdDeviation="5"/>
<feComposite in2="hardAlpha" operator="out"/>
<feColorMatrix type="matrix" values="0 0 0 0 0.615686 0 0 0 0 0.643137 0 0 0 0 1 0 0 0 0.6 0"/>
<feBlend mode="normal" in2="BackgroundImageFix" result="effect1_dropShadow_224_35004"/>
<feBlend mode="normal" in="SourceGraphic" in2="effect1_dropShadow_224_35004" result="shape"/>
</filter>
</defs>
</svg>
