<svg width="45" height="90" viewBox="0 0 45 90" fill="none" xmlns="http://www.w3.org/2000/svg">
<mask id="path-1-inside-1_224_34985" fill="white">
<path fill-rule="evenodd" clip-rule="evenodd" d="M12.4022 15.6021C11.8878 19.6753 13.0284 23.576 15.2998 26.6287C16.2915 27.9614 15.8107 30.2306 14.3647 31.0485C10.3102 33.342 7.35253 37.4551 6.72397 42.4318C6.18122 46.7291 7.48062 50.8345 10.0067 53.9545C11.0799 55.28 10.6541 57.6943 9.19313 58.5741C5.32444 60.9037 2.52261 64.9189 1.91283 69.747C0.856175 78.1132 6.78176 85.752 15.148 86.8086C23.5142 87.8653 31.153 81.9397 32.2097 73.5735C32.7524 69.2762 31.453 65.1708 28.9269 62.0508C27.8538 60.7253 28.2795 58.311 29.7405 57.4312C33.6092 55.1016 36.411 51.0864 37.0208 46.2583C37.5352 42.1852 36.3947 38.2845 34.1232 35.2318C33.1316 33.899 33.6124 31.6299 35.0583 30.812C39.1128 28.5185 42.0705 24.4054 42.6991 19.4286C43.7557 11.0624 37.8301 3.42363 29.4639 2.36697C21.0977 1.31032 13.4589 7.23591 12.4022 15.6021Z"/>
</mask>
<path d="M34.1232 35.2318L35.7278 34.0379L34.1232 35.2318ZM28.9269 62.0508L30.4813 60.7923L28.9269 62.0508ZM29.7405 57.4312L28.7088 55.7179L29.7405 57.4312ZM9.19313 58.5741L8.16142 56.8607L9.19313 58.5741ZM15.2998 26.6287L16.9043 25.4348L15.2998 26.6287ZM16.9043 25.4348C14.9289 22.7798 13.9393 19.3932 14.3865 15.8528L10.418 15.3515C9.83628 19.9574 11.1278 24.3722 13.6952 27.8226L16.9043 25.4348ZM8.7082 42.6824C9.25427 38.3589 11.8211 34.7851 15.3494 32.7893L13.38 29.3077C8.79941 31.8988 5.45079 36.5513 4.73973 42.1812L8.7082 42.6824ZM11.5611 52.696C9.36366 49.9819 8.23652 46.4171 8.7082 42.6824L4.73973 42.1812C4.12593 47.0411 5.59758 51.6871 8.45229 55.213L11.5611 52.696ZM3.89706 69.9976C4.42685 65.8029 6.85833 62.3146 10.2249 60.2874L8.16142 56.8607C3.79056 59.4927 0.618372 64.0349 -0.071409 69.4964L3.89706 69.9976ZM15.3986 84.8244C8.12824 83.9062 2.97882 77.268 3.89706 69.9976L-0.071409 69.4964C-1.26647 78.9585 5.43529 87.5978 14.8974 88.7929L15.3986 84.8244ZM30.2254 73.3228C29.3072 80.5932 22.669 85.7426 15.3986 84.8244L14.8974 88.7929C24.3595 89.9879 32.9988 83.2862 34.1939 73.8241L30.2254 73.3228ZM27.3725 63.3093C29.57 66.0234 30.6971 69.5882 30.2254 73.3228L34.1939 73.8241C34.8077 68.9642 33.336 64.3182 30.4813 60.7923L27.3725 63.3093ZM35.0366 46.0077C34.5068 50.2024 32.0753 53.6907 28.7088 55.7179L30.7722 59.1446C35.1431 56.5126 38.3153 51.9704 39.005 46.5089L35.0366 46.0077ZM32.5187 36.4257C34.4942 39.0806 35.4837 42.4673 35.0366 46.0077L39.005 46.5089C39.5867 41.9031 38.2952 37.4883 35.7278 34.0379L32.5187 36.4257ZM40.7148 19.178C40.1688 23.5016 37.602 27.0753 34.0736 29.0712L36.043 32.5527C40.6236 29.9617 43.9722 25.3092 44.6833 19.6792L40.7148 19.178ZM29.2133 4.35121C36.4837 5.26946 41.6331 11.9076 40.7148 19.178L44.6833 19.6792C45.8784 10.2171 39.1766 1.5778 29.7145 0.382736L29.2133 4.35121ZM14.3865 15.8528C15.3047 8.58238 21.9429 3.43296 29.2133 4.35121L29.7145 0.382736C20.2524 -0.812324 11.6131 5.88944 10.418 15.3515L14.3865 15.8528ZM35.7278 34.0379C35.6469 33.9291 35.5477 33.6476 35.6333 33.243C35.719 32.8383 35.9241 32.62 36.043 32.5527L34.0736 29.0712C32.7466 29.8218 31.9883 31.147 31.72 32.4146C31.4517 33.6822 31.6079 35.2017 32.5187 36.4257L35.7278 34.0379ZM30.4813 60.7923C30.3948 60.6854 30.2722 60.3797 30.3531 59.9209C30.4339 59.462 30.6538 59.2159 30.7722 59.1446L28.7088 55.7179C27.3662 56.5263 26.6427 57.9272 26.4137 59.2268C26.1848 60.5265 26.3859 62.0907 27.3725 63.3093L30.4813 60.7923ZM8.45229 55.213C8.53881 55.3199 8.66141 55.6255 8.58057 56.0844C8.49972 56.5432 8.27987 56.7894 8.16142 56.8607L10.2249 60.2874C11.5674 59.479 12.2909 58.0781 12.5199 56.7785C12.7489 55.4788 12.5477 53.9146 11.5611 52.696L8.45229 55.213ZM13.6952 27.8226C13.7762 27.9313 13.8754 28.2128 13.7897 28.6175C13.7041 29.0221 13.499 29.2404 13.38 29.3077L15.3494 32.7893C16.6764 32.0387 17.4347 30.7134 17.703 29.4458C17.9713 28.1782 17.8151 26.6588 16.9043 25.4348L13.6952 27.8226Z" fill="white" mask="url(#path-1-inside-1_224_34985)"/>
</svg>
