<svg width="192" height="152" viewBox="0 0 192 152" fill="none" xmlns="http://www.w3.org/2000/svg">
<path fill-rule="evenodd" clip-rule="evenodd" d="M23.2873 70.8883C18.4612 56.2528 19.0496 41.891 26.2003 30.3147C43.0182 3.08811 89.7673 1.57976 130.617 26.9458C171.467 52.3117 190.949 94.9465 174.131 122.173C157.313 149.4 110.564 150.908 69.7141 125.542C53.6585 115.572 40.9038 102.935 32.3567 89.6137C21.8904 90.2071 12.6741 90.5578 8.22876 89.9011C0.783916 88.8014 10.1962 80.5272 23.2873 70.8883Z" fill="#151F3F"/>
<path d="M26.2003 30.3147L25.3495 29.7892L25.3495 29.7892L26.2003 30.3147ZM23.2873 70.8883L24.237 70.5752L24.4641 71.2637L23.8802 71.6936L23.2873 70.8883ZM130.617 26.9458L130.09 27.7953L130.617 26.9458ZM174.131 122.173L174.982 122.699L174.131 122.173ZM69.7141 125.542L69.1866 126.392L69.7141 125.542ZM32.3567 89.6137L32.3001 88.6153L32.883 88.5823L33.1983 89.0737L32.3567 89.6137ZM27.0511 30.8403C20.0947 42.102 19.4772 56.1407 24.237 70.5752L22.3376 71.2015C17.4452 56.3649 18.0045 41.6801 25.3495 29.7892L27.0511 30.8403ZM130.09 27.7953C109.809 15.2017 88.1014 9.30504 69.429 9.90749C50.7484 10.5102 35.229 17.601 27.0511 30.8403L25.3495 29.7892C33.9895 15.8019 50.2536 8.52514 69.3645 7.90853C88.4838 7.29166 110.576 13.3238 131.145 26.0962L130.09 27.7953ZM173.28 121.648C181.459 108.408 180.876 91.3157 173.09 74.2773C165.308 57.247 150.371 40.3888 130.09 27.7953L131.145 26.0962C151.714 38.8687 166.942 56.0109 174.909 73.4461C182.873 90.8732 183.621 108.712 174.982 122.699L173.28 121.648ZM70.2416 124.693C90.5226 137.286 112.23 143.183 130.902 142.58C149.583 141.978 165.102 134.887 173.28 121.648L174.982 122.699C166.342 136.686 150.078 143.963 130.967 144.579C111.848 145.196 89.7556 139.164 69.1866 126.392L70.2416 124.693ZM33.1983 89.0737C41.6591 102.26 54.3027 114.795 70.2416 124.693L69.1866 126.392C53.0143 116.349 40.1485 103.609 31.515 90.1537L33.1983 89.0737ZM8.3749 88.9118C12.6949 89.55 21.7887 89.2112 32.3001 88.6153L32.4133 90.6121C21.992 91.2029 12.6533 91.5656 8.08263 90.8904L8.3749 88.9118ZM23.8802 71.6936C17.3259 76.5195 11.7818 80.9413 8.80152 84.2645C8.0614 85.0898 7.50347 85.8214 7.131 86.4521C6.75061 87.0962 6.61041 87.5572 6.59923 87.8589C6.59037 88.0984 6.65619 88.2443 6.83339 88.3888C7.06243 88.5756 7.5244 88.7862 8.3749 88.9118L8.08263 90.8904C7.07191 90.7411 6.19945 90.4526 5.56937 89.9387C4.88746 89.3826 4.56946 88.6263 4.60061 87.7849C4.62945 87.0055 4.9531 86.2068 5.4089 85.435C5.87264 84.6498 6.52327 83.8094 7.31256 82.9292C10.45 79.4307 16.1575 74.8961 22.6944 70.0831L23.8802 71.6936Z" fill="url(#paint0_linear_224_34971)"/>
<path d="M95.6147 85.2603C101.516 79.881 114.036 94.988 122.343 85.1972C128.243 78.2429 123.811 70.3906 113.471 61.6178C103.268 52.9616 93.7463 48.9746 85.1288 59.1314L93.3641 66.1186C97.2458 61.5434 101.387 63.2472 108.067 68.9145C113.969 73.922 115.156 76.9747 113.331 79.1251C108.362 84.9813 96.7192 68.0996 87.7912 78.6225L95.6147 85.2603ZM84.5693 82.4199L79.3678 88.5506L87.1913 95.1884L92.3929 89.0577L84.5693 82.4199Z" fill="white"/>
<defs>
<linearGradient id="paint0_linear_224_34971" x1="184.453" y1="32.8502" x2="-7.40578" y2="52.1991" gradientUnits="userSpaceOnUse">
<stop stop-color="#313A65"/>
<stop offset="1" stop-color="#313A65" stop-opacity="0"/>
</linearGradient>
</defs>
</svg>
