<svg width="145" height="144" viewBox="0 0 145 144" fill="none" xmlns="http://www.w3.org/2000/svg">
<circle cx="73.4353" cy="75.6963" r="54.0446" transform="rotate(16.4471 73.4353 75.6963)" fill="url(#paint0_linear_224_34849)" stroke="url(#paint1_linear_224_34849)" stroke-width="0.865103"/>
<path d="M59.6654 90.5977L60.1834 91.2203L60.4127 90.4435L62.5425 83.2293L62.6141 82.9867L62.4378 82.8053L57.8282 78.0627L54.5015 74.4875L59.2501 73.247L65.6786 71.8183L65.9274 71.7629L65.9996 71.5185L68.1293 64.3042L68.3586 63.5274L67.5855 63.7689L49.5459 69.4021L49.3254 69.4709L49.26 69.6925L47.495 75.6714L47.4296 75.893L47.5773 76.0706L59.6654 90.5977ZM62.8875 94.7111L62.681 95.1643L63.1586 95.3053L66.7373 96.3617L67.0976 96.4681L67.2534 96.1262L81.6249 64.5761L81.8313 64.123L81.3537 63.982L77.7751 62.9255L77.4147 62.8192L77.259 63.1611L62.8875 94.7111ZM76.6934 95.2497L76.4641 96.0265L77.2372 95.7851L95.2767 90.1519L95.4972 90.083L95.5627 89.8615L97.3277 83.8825L97.3931 83.661L97.2453 83.4834L85.1573 68.9562L84.6393 68.3336L84.4099 69.1104L82.2802 76.3247L82.2081 76.5691L82.387 76.7507L87.0089 81.4417L90.3224 85.0621L85.5875 86.2575L79.1412 87.7364L78.8947 87.7929L78.8231 88.0355L76.6934 95.2497Z" fill="black" stroke="black" stroke-width="0.865103"/>
<path d="M29.6848 70.5015L27.7728 70.3871L27.3879 76.8185L33.4717 77.1826L33.6069 74.9229L31.9991 74.8267L32.2175 71.1764L30.3055 71.062L30.087 74.7123L29.4352 74.6733L29.6848 70.5015Z" fill="black"/>
<path d="M32.061 61.8675C30.747 61.5235 29.5633 62.1945 29.2126 63.5337L27.9996 68.1662L33.8955 69.7101L34.4689 67.5202L33.0876 67.1585L33.425 65.8698L35.0203 65.4145L35.6996 62.8203L33.7332 63.4214C33.524 62.6736 32.9201 62.0925 32.061 61.8675ZM30.426 66.4615L30.9553 64.4401C31.0127 64.2211 31.0833 63.9516 31.4876 64.0574C31.8918 64.1633 31.8213 64.4328 31.7639 64.6518L31.2346 66.6733L30.426 66.4615Z" fill="black"/>
<path d="M37.6939 58.4922C38.8795 56.0965 38.4724 54.603 36.5762 53.6645C34.6878 52.7299 33.2611 53.3159 32.0755 55.7115C30.886 58.1149 31.2814 59.593 33.1776 60.5314C35.0816 61.4738 36.5044 60.8956 37.6939 58.4922ZM35.9771 57.6425C35.3863 58.8364 34.767 58.7922 34.1817 58.5026C33.6043 58.2168 33.1975 57.7629 33.7922 56.5612C34.387 55.3595 35.0024 55.4115 35.572 55.6934C36.1495 55.9792 36.568 56.4486 35.9771 57.6425Z" fill="black"/>
<path d="M38.2395 46.3274L41.0489 48.5718L36.5983 48.3817L34.7506 50.6946L39.5123 54.4987L40.9253 52.7301L38.1159 50.4856L42.5665 50.6757L44.4142 48.3629L39.6525 44.5588L38.2395 46.3274Z" fill="black"/>
<path d="M47.0416 38.1087L41.2355 42.8368L42.445 44.3221L44.4704 42.6727L47.1093 45.9134L48.8647 44.484L46.2257 41.2433L48.2511 39.594L47.0416 38.1087Z" fill="black"/>
<path d="M49.8661 38.8691L50.6698 40.4138L56.8488 37.1988L56.0451 35.6541L49.8661 38.8691Z" fill="black"/>
<path d="M63.7138 32.6023L63.2227 30.9316L57.0413 32.7487L58.7602 38.596L64.9416 36.7789L64.4505 35.1083L60.4409 36.2869L60.2813 35.7439L64.2909 34.5653L63.8735 33.1452L59.8639 34.3239L59.7043 33.7809L63.7138 32.6023Z" fill="black"/>
<path d="M70.8042 29.9095L71.0947 33.4937L68.1834 30.122L65.2328 30.3611L65.7251 36.4359L67.9814 36.253L67.691 32.6689L70.6023 36.0406L73.5529 35.8014L73.0605 29.7267L70.8042 29.9095Z" fill="black"/>
<path d="M79.915 30.2866L75.4273 29.6876L74.621 35.7287L79.1086 36.3277C80.5671 36.5224 82.0684 35.739 82.3425 33.685C82.6167 31.6311 81.3735 30.4813 79.915 30.2866ZM78.6717 34.3369L77.1182 34.1296L77.4178 31.8858L78.9712 32.0931C79.4545 32.1576 80.2484 32.2636 80.0987 33.3855C79.9489 34.5074 79.155 34.4015 78.6717 34.3369Z" fill="black"/>
<path d="M92.714 34.0166L88.5826 32.1646L86.0896 37.726L90.221 39.578C91.5637 40.1799 93.2258 39.8564 94.0734 37.9655C94.9211 36.0746 94.0567 34.6185 92.714 34.0166ZM90.3689 37.5452L88.9388 36.9042L89.8648 34.8385L91.2949 35.4795C91.7398 35.679 92.4707 36.0066 92.0077 37.0395C91.5447 38.0723 90.8138 37.7447 90.3689 37.5452Z" fill="black"/>
<path d="M101.407 41.3281L102.416 39.909L97.1657 36.1751L93.6337 41.1421L98.8844 44.8759L99.8936 43.4568L96.4877 41.0348L96.8156 40.5736L100.222 42.9956L101.079 41.7893L97.6734 39.3674L98.0014 38.9062L101.407 41.3281Z" fill="black"/>
<path d="M108.036 45.3619L103.553 47.1894L105.7 42.85L104.004 41.0266L101.261 47.0263L103.55 49.4872L109.732 47.1853L108.036 45.3619Z" fill="black"/>
<path d="M112.816 55.2159L114.305 54.3129L110.964 48.8039L105.753 51.9645L109.094 57.4734L110.583 56.5704L108.416 52.9971L108.9 52.7036L111.067 56.2769L112.333 55.5094L110.165 51.936L110.649 51.6425L112.816 55.2159Z" fill="black"/>
<path d="M112.154 59.6426L116.061 58.1585L115.257 56.0423L109.56 58.2066L111.786 64.0668L113.577 63.3866L112.154 59.6426Z" fill="black"/>
<path d="M112.736 68.5771C113.191 71.2111 114.4 72.1775 116.485 71.8176C118.562 71.4592 119.368 70.1448 118.914 67.5108C118.458 64.8682 117.267 63.9075 115.182 64.2674C113.089 64.6287 112.28 65.9345 112.736 68.5771ZM114.624 68.2513C114.397 66.9386 114.924 66.6092 115.567 66.4981C116.202 66.3885 116.798 66.5153 117.026 67.8366C117.254 69.1579 116.727 69.4787 116.1 69.5868C115.465 69.6964 114.85 69.564 114.624 68.2513Z" fill="black"/>
<path d="M119.533 78.1227L119.71 73.3373L113.619 73.1128L113.536 75.375L114.963 75.4276L114.87 77.9509C114.819 79.3343 115.758 80.3186 117.116 80.3686C118.473 80.4186 119.482 79.5061 119.533 78.1227ZM116.8 77.5863L116.877 75.4982L117.712 75.5289L117.635 77.6171C117.627 77.8433 117.617 78.1218 117.199 78.1064C116.781 78.091 116.792 77.8126 116.8 77.5863Z" fill="black"/>
<path d="M116.022 88.6954L117.716 89.0974L119.204 82.8285L113.274 81.4216L111.786 87.6905L113.481 88.0925L114.445 84.0261L114.996 84.1568L114.031 88.2231L115.471 88.5648L116.436 84.4985L116.987 84.6291L116.022 88.6954Z" fill="black"/>
<path d="M112.141 96.5898C113.378 97.1501 114.658 96.6879 115.229 95.4268L117.204 91.0646L111.652 88.5503L110.718 90.6125L112.019 91.2015L111.47 92.415L109.821 92.5953L108.714 95.0381L110.754 94.7766C110.834 95.5489 111.332 96.2234 112.141 96.5898ZM114.525 92.3366L113.663 94.2401C113.57 94.4463 113.455 94.7001 113.074 94.5277C112.694 94.3553 112.809 94.1015 112.902 93.8952L113.764 91.9917L114.525 92.3366Z" fill="black"/>
<path d="M110.144 97.124C108.68 96.058 107.515 96.933 106.044 98.9531C104.573 100.973 104.098 102.35 105.457 103.34C106.745 104.277 107.755 103.171 109.247 101.285C110.068 100.246 110.189 100.065 110.379 100.203C110.569 100.341 110.483 100.548 109.858 101.407C109.207 102.301 108.843 102.682 108.583 102.493L107.25 104.323C108.51 105.24 109.764 104.494 111.163 102.573C112.578 100.63 112.887 99.229 111.803 98.4397C110.656 97.6044 109.67 98.1895 107.98 100.362C107.104 101.491 106.958 101.633 106.747 101.479C106.564 101.346 106.611 101.132 107.401 100.048C108.246 98.8871 108.572 98.7797 108.811 98.954L110.144 97.124Z" fill="black"/>
<defs>
<linearGradient id="paint0_linear_224_34849" x1="73.4353" y1="21.2192" x2="73.4353" y2="130.173" gradientUnits="userSpaceOnUse">
<stop stop-color="#9FA6FF"/>
<stop offset="1" stop-color="#7A84FF"/>
</linearGradient>
<linearGradient id="paint1_linear_224_34849" x1="130.159" y1="49.8148" x2="29.8083" y2="110.483" gradientUnits="userSpaceOnUse">
<stop stop-color="#7E87FF"/>
<stop offset="0.932292" stop-color="#9DA4FF"/>
</linearGradient>
</defs>
</svg>
