<svg width="347" height="348" viewBox="0 0 347 348" fill="none" xmlns="http://www.w3.org/2000/svg">
<circle cx="173.39" cy="173.909" r="101.886" transform="rotate(-12.5051 173.39 173.909)" fill="url(#paint0_linear_224_34848)" stroke="url(#paint1_linear_224_34848)" stroke-width="1.63091"/>
<path d="M90.0588 176.716L84.1797 177.181L84.5262 181.561L90.4053 181.096C91.6518 180.997 92.8165 181.362 93.0204 183.94C93.2243 186.517 92.1485 187.06 90.8851 187.16L85.006 187.625L85.3525 192.005L91.2316 191.54C95.3419 191.215 97.1369 188.835 96.7264 183.647C96.3173 178.475 94.1522 176.392 90.0588 176.716Z" fill="black"/>
<path d="M84.7264 169.732L84.4395 174.116L96.243 174.889L96.5299 170.505L84.7264 169.732Z" fill="black"/>
<path d="M86.0424 158.122L85.3066 162.282L99.0179 169.169L99.7538 165.009L86.0424 158.122Z" fill="black"/>
<path d="M97.7676 141.758L92.2269 139.738L90.722 143.865L96.2627 145.885C97.4375 146.314 98.3449 147.13 97.4593 149.559C96.5737 151.988 95.3696 152.035 94.1789 151.601L88.6382 149.581L87.1333 153.708L92.674 155.729C96.5477 157.141 99.1692 155.722 100.952 150.833C102.729 145.959 101.625 143.164 97.7676 141.758Z" fill="black"/>
<path d="M103.377 142.919L106.49 138.091L105.262 133.76L109.714 133.092L112.827 128.263L104.825 129.759L102.886 121.853L99.7724 126.681L101.001 131.012L96.549 131.68L93.4355 136.509L101.437 135.013L103.377 142.919Z" fill="black"/>
<path d="M117.54 107.246L110.764 112.841L118.296 121.962L125.071 116.367C127.273 114.549 128.14 111.379 125.58 108.278C123.019 105.177 119.742 105.428 117.54 107.246ZM121.662 114.362L119.316 116.298L116.519 112.91L118.865 110.974C119.594 110.371 120.793 109.381 122.192 111.075C123.59 112.769 122.392 113.759 121.662 114.362Z" fill="black"/>
<path d="M137.563 98.4675L135.949 95.4984L124.963 101.472L130.614 111.864L141.599 105.89L139.985 102.921L132.859 106.796L132.334 105.831L139.46 101.956L138.088 99.4325L130.962 103.307L130.437 102.342L137.563 98.4675Z" fill="black"/>
<path d="M141.99 100.874C143.035 104.23 145.862 104.216 150.493 102.775C155.123 101.333 157.459 99.7388 156.489 96.6249C155.57 93.6723 152.716 94.2247 148.207 95.4336C145.725 96.1003 145.326 96.2421 145.191 95.8064C145.055 95.3708 145.428 95.1484 147.397 94.5356C149.446 93.8977 150.454 93.7253 150.64 94.3223L154.835 93.0163C153.936 90.1282 151.12 89.8369 146.715 91.2083C142.262 92.5947 140.157 94.418 140.931 96.9027C141.749 99.5326 143.963 99.7638 149.112 98.3378C151.783 97.5947 152.174 97.5437 152.325 98.0277C152.455 98.4472 152.134 98.7241 149.65 99.4976C146.987 100.326 146.356 100.116 146.185 99.5676L141.99 100.874Z" fill="black"/>
<path d="M161.475 87.953L157.136 88.6427L158.993 100.325L163.332 99.6351L161.475 87.953Z" fill="black"/>
<path d="M171.642 94.8349L174.818 94.7848C174.662 95.5816 173.635 95.8344 171.945 95.861C169.36 95.9018 168.884 94.6249 168.861 93.1888C168.839 91.7695 169.261 90.6643 171.863 90.6233C173.721 90.5939 174.592 91.1379 174.77 91.7435L179.265 91.6726C179.028 88.4484 176.535 86.8315 171.804 86.9061C166.938 86.9829 164.401 88.9834 164.465 93.0891C164.53 97.2118 167.13 99.1481 171.489 99.0793C173.973 99.0401 175.516 98.3059 176.494 97.1244L176.842 98.8258L179.377 98.7858L179.275 92.3484L171.604 92.4695L171.642 94.8349Z" fill="black"/>
<path d="M193.984 89.2249L192.593 96.0639L188.983 88.2081L183.353 87.0635L180.996 98.655L185.301 99.5304L186.692 92.6914L190.302 100.547L195.933 101.692L198.289 90.1002L193.984 89.2249Z" fill="black"/>
<path d="M212.668 99.2519L213.986 96.1397L202.471 91.2638L197.859 102.156L209.374 107.032L210.691 103.92L203.222 100.757L203.651 99.7458L211.12 102.909L212.24 100.263L204.771 97.1005L205.199 96.0891L212.668 99.2519Z" fill="black"/>
<path d="M226.762 109.37C228.239 107.187 227.774 104.587 225.549 103.081L217.851 97.8727L211.222 107.669L214.861 110.132L216.414 107.836L218.556 109.285L218.36 112.499L222.671 115.416L222.839 111.428C224.342 111.528 225.796 110.797 226.762 109.37ZM219.407 103.414L222.766 105.687C223.129 105.933 223.577 106.236 223.123 106.908C222.668 107.579 222.22 107.276 221.856 107.03L218.498 104.757L219.407 103.414Z" fill="black"/>
<path d="M227.432 113.6C224.909 116.047 226.197 118.564 229.573 122.046C232.95 125.527 235.426 126.892 237.768 124.621C239.987 122.468 238.206 120.17 235.093 116.693C233.377 114.779 233.071 114.487 233.398 114.169C233.726 113.852 234.093 114.084 235.528 115.564C237.022 117.105 237.631 117.927 237.182 118.362L240.241 121.516C242.412 119.41 241.401 116.766 238.19 113.454C234.942 110.106 232.365 109.051 230.497 110.863C228.52 112.78 229.313 114.86 232.909 118.811C234.778 120.859 235 121.185 234.636 121.538C234.321 121.844 233.929 121.682 232.117 119.814C230.176 117.813 230.078 117.154 230.491 116.754L227.432 113.6Z" fill="black"/>
<path d="M147.555 141.509L172.218 161.857L203.924 157.724L183.576 182.387L187.71 214.092L163.046 193.744L131.341 197.878L151.689 173.215L147.555 141.509Z" fill="black"/>
<path d="M208.925 176.501L219.575 185.288L233.266 183.503L224.48 194.153L226.265 207.844L215.615 199.057L201.924 200.842L210.71 190.192L208.925 176.501Z" fill="black"/>
<defs>
<linearGradient id="paint0_linear_224_34848" x1="173.39" y1="71.2071" x2="173.39" y2="276.61" gradientUnits="userSpaceOnUse">
<stop stop-color="#FFE34E"/>
<stop offset="1" stop-color="#FBC53C"/>
</linearGradient>
<linearGradient id="paint1_linear_224_34848" x1="280.328" y1="125.116" x2="91.144" y2="239.489" gradientUnits="userSpaceOnUse">
<stop stop-color="#FCC93E"/>
<stop offset="0.932292" stop-color="#FFE34E"/>
</linearGradient>
</defs>
</svg>
