<svg width="561" height="243" viewBox="0 0 561 243" fill="none" xmlns="http://www.w3.org/2000/svg">
<g filter="url(#filter0_d_202_13386)">
<path fill-rule="evenodd" clip-rule="evenodd" d="M85.9684 34.3908C41.8365 34.7959 7.22775 72.4052 10.485 116.419C13.3065 154.545 43.6507 184.058 80.6273 186.945C79.0038 196.019 75.703 206.726 72.8576 215.955C71.1508 221.491 69.6077 226.496 68.6889 230.299C66.8586 237.873 77.8093 228.357 93.2745 214.918C104.681 205.005 118.543 192.959 131.545 184.061L491.378 157.432C526.741 154.815 553.095 123.721 549.879 88.4067C546.884 55.5089 519.146 30.4145 486.113 30.7177L85.9684 34.3908Z" fill="#9DA4FF"/>
</g>
<path d="M44.5951 124.95C47.0637 125.366 50.0044 126.316 51.5452 127.307L52.8162 125.069C51.2355 124.08 48.2197 123.215 45.8379 122.914L44.5951 124.95ZM55.6237 120.336C54.083 119.345 51.1752 118.273 48.8639 117.808L47.5366 119.769C49.8525 120.314 52.7673 121.505 54.2305 122.541L55.6237 120.336ZM53.0343 127.42C51.0186 130.624 48.6199 134.13 46.8604 136.237L49.1245 137.947C51.0556 135.349 53.224 132.017 54.9767 129.109L53.0343 127.42ZM68.9674 122.398L75.5162 122.013C74.9804 123.808 74.2826 125.572 73.714 126.807L76.1873 127.303C77.1553 125.363 78.2197 122.335 79.1079 119.719L77.0809 119.317L76.6087 119.465L62.4331 120.297C62.8514 119.231 63.2273 118.127 63.5234 117.027L61.0548 116.611L79.5829 115.524L79.4446 113.168L63.6318 114.096L63.4748 111.421L75.9334 110.689L75.8044 108.493L63.3459 109.224L63.1959 106.669L77.6111 105.823L77.4751 103.507L69.4489 103.978C70.1937 103.013 70.9689 101.885 71.6643 100.762L68.4606 100.109C67.9671 101.26 67.0626 102.916 66.2544 104.165L57.0303 104.707C56.4409 103.539 55.2338 102.088 54.0477 100.995L51.546 102.064C52.3563 102.898 53.1782 103.931 53.8358 104.894L45.8496 105.363L45.9855 107.679L60.201 106.845L60.351 109.4L48.1321 110.117L48.261 112.314L60.4799 111.596L60.637 114.272L45.0638 115.186L45.2021 117.542L60.6555 116.635C59.6708 120.339 57.7983 123.935 55.3787 126.401C56.041 126.763 57.3257 127.489 57.873 127.937C59.1134 126.542 60.2927 124.79 61.2607 122.85L65.8927 122.578L65.9959 124.335C66.1037 126.172 65.053 132.164 54.8561 135.247C55.4103 135.815 56.2723 136.846 56.6269 137.427C64.5312 134.879 67.2565 130.111 67.7547 127.678C68.6165 130.071 71.8809 134.488 80.0266 136.053C80.3109 135.435 81.0415 134.231 81.5231 133.561C70.9182 131.739 69.1737 125.912 69.0682 124.115L68.9674 122.398ZM106.841 104.788L109.756 104.617L109.641 102.66L119.144 102.103L119.004 99.7068L109.5 100.265L109.355 97.7889L106.44 97.96L106.585 100.436L102.233 100.691L102.373 103.087L106.726 102.832L106.841 104.788ZM93.6234 105.564L96.5384 105.393L96.4236 103.436L101.096 103.162L100.955 100.766L96.2829 101.04L96.1376 98.5647L93.2226 98.7358L93.3679 101.212L84.1039 101.755L84.2445 104.151L93.5086 103.607L93.6234 105.564ZM94.3091 125.438C93.4655 128.132 91.8257 130.913 89.1994 132.59L91.3743 134.145C94.2237 132.175 95.7274 129.121 96.6391 126.223L94.3091 125.438ZM99.5815 131.98C99.605 132.38 99.4922 132.506 99.0154 132.574C98.6161 132.598 97.0987 132.687 95.4592 132.743C95.8607 133.441 96.3163 134.376 96.4783 135.087C98.7544 134.954 100.232 134.867 101.167 134.412C102.139 133.914 102.381 133.258 102.302 131.901L101.741 122.357L99.0261 122.517L99.5815 131.98ZM102.812 126.261C104.172 128.265 105.536 131.03 105.999 132.766L108.263 131.751C107.763 130.058 106.326 127.417 104.966 125.413L102.812 126.261ZM107.71 125.052C110.363 127.26 113.393 130.408 114.76 132.532L117.076 131.034C115.629 128.915 112.567 125.889 109.918 123.761L107.71 125.052ZM92.2461 112.817L112.092 111.652L112.244 114.248L92.3984 115.413L92.2461 112.817ZM91.9859 108.385L111.832 107.22L111.979 109.736L92.1336 110.9L91.9859 108.385ZM120.415 120.34L120.275 117.944L98.7517 119.207C99.1886 118.46 99.5481 117.758 99.863 116.978L115.197 116.078L114.547 105.017L89.1111 106.51L89.7603 117.571L96.6285 117.168C96.2714 117.91 95.8743 118.655 95.3974 119.404L84.8556 120.023L84.9962 122.418L93.3818 121.926C91.3051 124.092 88.4181 126.104 84.6643 127.687C85.329 128.089 86.2238 128.998 86.663 129.653C91.3446 127.495 94.7485 124.731 97.0954 121.708L107.677 121.087C110.658 124.078 115.301 126.73 119.456 127.889C119.815 127.186 120.598 126.179 121.124 125.587C117.591 124.793 113.721 123.016 110.991 120.893L120.415 120.34ZM128.225 101.169L138.368 100.574L138.818 108.24L128.675 108.836L128.225 101.169ZM133.194 115.502C133.269 114.056 133.305 112.611 133.302 111.209L141.768 110.712L141.006 97.7341L125.313 98.6553L126.075 111.633L130.427 111.377C130.452 118.628 129.972 126.831 124.794 131.462C125.539 131.859 126.514 132.764 126.951 133.379C130.939 129.659 132.493 124.038 133.031 118.197L139.58 117.812C139.682 125.7 139.461 128.758 138.789 129.599C138.451 129.979 138.136 130.078 137.457 130.118C136.739 130.16 134.862 130.27 132.894 130.185C133.413 130.836 133.758 131.938 133.885 132.732C135.806 132.699 137.765 132.624 138.756 132.446C139.949 132.295 140.614 132.016 141.246 131.178C142.252 129.876 142.438 126.219 142.333 116.248C142.312 115.889 142.298 114.968 142.298 114.968L133.194 115.502ZM148.128 100.281L145.252 100.45L146.542 122.412L149.417 122.243L148.128 100.281ZM154.721 95.8873L156.585 127.633C156.629 128.391 156.324 128.65 155.605 128.692C154.849 128.776 152.335 128.964 149.533 129.008C150.062 129.819 150.581 131.151 150.787 131.94C154.421 131.727 156.655 131.555 157.944 130.999C159.152 130.407 159.657 129.456 159.54 127.459L157.676 95.7139L154.721 95.8873ZM179.521 93.7906C179.758 99.8671 181.136 119.26 165.057 128.618C166.013 129.203 167.023 130.025 167.589 130.793C177.027 125.03 180.735 115.837 182.103 107.743C184.456 115.058 189.307 124.67 199.564 128.756C199.954 127.892 200.774 126.842 201.573 126.114C187.109 120.672 183.734 104.121 182.856 99.4048C182.917 97.0371 182.84 95.0382 182.796 93.5984L179.521 93.7906ZM216.871 108.908L208.486 109.4L207.996 101.055L216.381 100.562L216.871 108.908ZM209.203 121.619L208.64 112.036L217.026 111.543L217.588 121.127L209.203 121.619ZM210.813 91.7134C210.644 93.6066 210.082 96.3242 209.596 98.276L205.123 98.5385L206.83 127.609L209.545 127.449L209.36 124.295L220.461 123.643L218.94 97.7276L212.311 98.1166C212.889 96.3598 213.479 94.1213 214.043 92.1249L210.813 91.7134ZM238.459 96.4616L226.519 97.1624C227.088 95.2458 227.535 93.2963 227.899 91.3116L225.024 90.7991C224.067 96.3447 222.235 101.982 219.765 105.653C220.428 106.015 221.752 106.738 222.3 107.187C223.587 105.228 224.682 102.72 225.643 99.9786L235.786 99.3833C236.199 115.306 235.957 121.411 234.721 122.886C234.352 123.429 233.917 123.534 233.119 123.581C232.2 123.635 229.805 123.776 227.195 123.688C227.803 124.494 228.233 125.671 228.364 126.545C230.608 126.533 232.888 126.48 234.276 126.238C235.627 126.038 236.524 125.625 237.337 124.455C238.82 122.405 238.978 116.225 238.548 97.979L238.459 96.4616ZM233.205 114.801C231.788 112.52 228.808 108.848 226.406 106.145L224.169 107.638C226.534 110.384 229.442 114.18 230.78 116.506L233.205 114.801ZM249.346 116.739L256.693 116.307L256.555 113.951L249.207 114.383L249.346 116.739ZM253.057 98.7302L250.741 98.8661L250.441 93.7549L252.757 93.619L253.057 98.7302ZM257.796 107.788C257.718 107.833 257.559 107.842 257.199 107.863L255.722 107.95C255.243 107.978 255.2 107.94 255.17 107.421L254.804 101.192L257.4 101.04L257.796 107.788ZM247.943 120.828L247.38 111.244C247.796 111.5 248.261 111.914 248.517 112.179C250.864 109.838 251.247 106.81 251.107 104.414L250.931 101.419L253.127 101.29L253.495 107.56C253.605 109.436 254.108 109.808 255.665 109.716L257.622 109.601L257.901 109.585L258.525 120.207L247.943 120.828ZM249.294 101.515L249.469 104.51C249.584 106.467 249.366 108.884 247.362 110.925L246.818 101.661L249.294 101.515ZM243.333 94.1721L248.325 93.8791L248.625 98.9903L244.352 99.2411L245.936 126.235L248.252 126.099L248.086 123.264L258.668 122.642L258.801 124.919L261.157 124.78L259.606 98.3458L255.213 98.6036L254.913 93.4924L259.745 93.2088L259.595 90.6532L243.183 91.6165L243.333 94.1721ZM276.685 112.169L277.135 119.836L266.513 120.459L266.063 112.792L276.685 112.169ZM264.025 125.173L266.78 125.011L266.673 123.174L277.294 122.551L277.398 124.308L280.273 124.139L279.401 109.285L263.149 110.239L264.025 125.173ZM272.733 103.546L272.365 97.2763L279.073 96.8825L278.916 94.2071L272.208 94.6009L271.835 88.2518L269.04 88.4159L269.413 94.765L265.779 94.9783C266.052 93.4797 266.282 91.9436 266.47 90.3698L263.689 90.0923C263.327 94.1605 262.415 98.4213 260.939 101.273C261.635 101.512 262.91 102.079 263.493 102.445C264.096 101.127 264.681 99.4903 265.137 97.7005L269.57 97.4404L269.938 103.71L261.432 104.209L261.589 106.884L280.517 105.773L280.36 103.098L272.733 103.546ZM289.277 114.395L296.624 113.963L296.486 111.608L289.139 112.039L289.277 114.395ZM292.988 96.3863L290.672 96.5223L290.372 91.4111L292.688 91.2751L292.988 96.3863ZM297.727 105.444C297.65 105.489 297.49 105.498 297.13 105.519L295.653 105.606C295.174 105.634 295.132 105.597 295.101 105.077L294.735 98.8482L297.331 98.6958L297.727 105.444ZM287.874 118.484L287.312 108.9C287.727 109.157 288.192 109.57 288.448 109.835C290.795 107.494 291.179 104.466 291.038 102.07L290.862 99.0755L293.058 98.9466L293.426 105.216C293.536 107.093 294.039 107.464 295.596 107.372L297.553 107.258L297.833 107.241L298.456 117.863L287.874 118.484ZM289.225 99.1716L289.401 102.166C289.516 104.123 289.297 106.54 287.293 108.581L286.749 99.3169L289.225 99.1716ZM283.264 91.8283L288.256 91.5353L288.556 96.6465L284.283 96.8973L285.868 123.891L288.184 123.755L288.017 120.92L298.599 120.299L298.733 122.575L301.089 122.436L299.537 96.0019L295.144 96.2598L294.844 91.1486L299.676 90.865L299.526 88.3094L283.114 89.2727L283.264 91.8283ZM316.616 109.825L317.066 117.492L306.445 118.115L305.995 110.448L316.616 109.825ZM303.956 122.829L306.712 122.667L306.604 120.831L317.226 120.207L317.329 121.964L320.204 121.795L319.332 106.941L303.08 107.895L303.956 122.829ZM312.664 101.202L312.296 94.9325L319.005 94.5387L318.848 91.8633L312.139 92.2571L311.766 85.908L308.971 86.0721L309.344 92.4211L305.71 92.6344C305.983 91.1359 306.213 89.5997 306.401 88.026L303.62 87.7485C303.258 91.8167 302.346 96.0775 300.871 98.9288C301.566 99.1685 302.841 99.7347 303.424 100.101C304.028 98.7836 304.613 97.1465 305.069 95.3567L309.501 95.0965L309.869 101.366L301.364 101.865L301.521 104.54L320.448 103.429L320.291 100.754L312.664 101.202ZM326.002 110.676C325.79 113.894 325.398 117.443 324.665 119.971C325.233 120.098 326.412 120.389 326.908 120.64C327.561 118.118 328.104 114.4 328.299 110.902L326.002 110.676ZM330.129 110.675C330.728 113.364 331.371 116.812 331.589 119.164L333.793 118.473C333.537 116.164 332.896 112.756 332.182 110.153L330.129 110.675ZM334.397 109.663C335.419 112.047 336.565 115.185 337.088 117.278L339.12 116.398C338.601 114.385 337.378 111.291 336.314 108.869L334.397 109.663ZM333.501 100.54C334.008 101.672 334.603 102.919 335.117 104.171L328.305 105.533C331.237 101.554 334.033 96.6217 336.272 91.7622L333.874 90.5005C333.145 92.4265 332.18 94.4065 331.282 96.1821L327.113 96.8275C329.131 93.6639 331.057 89.624 332.514 85.772L329.935 84.8416C328.631 89.2455 326.183 93.9571 325.415 95.2042C324.686 96.4491 324.057 97.3275 323.427 97.5247C323.747 98.1871 324.223 99.4814 324.416 100.031C324.918 99.7211 325.745 99.4722 329.87 98.7493C328.601 101.028 327.464 102.817 326.87 103.613C325.801 105.199 324.981 106.249 324.192 106.455C324.553 107.155 325.068 108.407 325.183 109.002C325.918 108.558 327.1 108.208 335.922 106.288C336.122 106.957 336.361 107.624 336.514 108.176L338.698 107.166C338.107 105.278 336.761 102.151 335.575 99.6966L333.501 100.54ZM348.462 110.36C347.624 110.409 347.485 110.097 347.424 109.058L347.195 105.145L355.42 104.662L355.282 102.306L349.372 102.653L350.772 101.93C350.361 101.073 349.551 99.5574 348.804 98.4393L355.513 98.0455L355.375 95.6896L351.98 95.8888C352.519 94.1342 353.104 91.816 353.588 89.8242L351.394 89.3118C351.147 91.2496 350.513 94.0917 349.904 96.0107L342.317 96.456L342.455 98.8119L348.565 98.4533L346.77 99.2799C347.39 100.285 348.111 101.645 348.534 102.702L343.103 103.021L343.241 105.377L344.719 105.29L344.946 109.164C345.101 111.799 345.756 112.722 348.392 112.568L353.503 112.268C354.501 112.209 355.537 112.108 356.047 111.918C355.932 111.324 355.798 110.41 355.678 109.736C355.089 109.931 353.973 110.036 353.334 110.074L348.462 110.36ZM343.321 90.3467C344.382 92.0474 345.361 94.3941 345.732 95.935L347.609 95.1436C347.278 93.6004 346.222 91.2983 345.12 89.6L343.321 90.3467ZM358.317 85.0589L337.992 86.2519L340.024 120.872L342.699 120.715L340.822 88.7303L355.756 87.8537L357.434 116.445C357.467 117.004 357.317 117.173 356.8 117.243C356.321 117.271 354.726 117.405 353.044 117.423C353.406 118.123 353.835 119.3 353.957 120.014C356.393 119.871 358.028 119.735 358.958 119.2C359.968 118.66 360.246 117.922 360.15 116.285L358.317 85.0589ZM391.994 95.6237L371.948 96.8003L371.735 93.1666L391.78 91.99L391.994 95.6237ZM392.341 101.534L372.295 102.71L372.079 99.0365L392.125 97.8599L392.341 101.534ZM392.69 107.483L372.644 108.66L372.429 104.986L392.474 103.81L392.69 107.483ZM368.562 90.9888L369.75 111.234L395.985 109.694L394.797 89.4489L381.819 90.2106C382.153 89.0691 382.477 87.7679 382.764 86.5089L397.618 85.637L397.459 82.9217L364.356 84.8647L364.515 87.58L379.37 86.7081C379.24 87.9178 378.998 89.2543 378.744 90.3911L368.562 90.9888ZM377.003 111.249C374.356 113.248 369.047 115.643 364.84 117.012C365.557 117.611 366.496 118.597 367.013 119.208C371.215 117.759 376.442 115.329 379.794 113.049L377.003 111.249ZM385.595 112.908C390.361 114.231 395.195 116.031 398.121 117.422L400.757 115.224C397.551 113.849 392.36 112.111 387.597 110.827L385.595 112.908ZM407.498 101.726L407.327 98.8108L412.358 98.5154L412.529 101.43L407.498 101.726ZM407.043 93.9791L412.074 93.6837L412.243 96.5588L407.212 96.8541L407.043 93.9791ZM419.981 93.2197L420.15 96.0947L414.919 96.4018L414.75 93.5267L419.981 93.2197ZM420.436 100.966L415.205 101.273L415.033 98.3584L420.264 98.0514L420.436 100.966ZM430.225 88.2108C430.141 85.4109 429.967 82.456 429.792 79.4612L426.996 79.6252C427.174 82.66 427.346 85.575 427.43 88.3749L422.678 88.6538L422.842 91.449L427.514 91.1747C427.595 98.7029 426.934 105.193 423.737 110.109L423.725 109.909C421.069 110.385 418.37 110.824 415.788 111.216L415.603 108.062L423.43 107.602L423.296 105.326L415.469 105.786L415.326 103.35L423.073 102.895L422.377 91.0355L414.63 91.4902L414.483 88.9745L422.948 88.4777L422.812 86.1616L414.347 86.6585L414.176 83.7435C417.072 83.253 419.766 82.7342 421.894 82.1285L420.283 79.9391C416.224 81.099 409.079 82.2396 403.188 82.906C403.542 83.4862 403.878 84.4281 404.035 85.06C406.387 84.8418 408.973 84.5298 411.517 84.1801L411.671 86.8156L403.046 87.3218L403.182 89.6378L411.807 89.1316L411.955 91.6473L404.488 92.0855L405.184 103.945L412.651 103.507L412.794 105.943L405.247 106.386L405.381 108.662L412.928 108.219L413.129 111.653C409.874 112.164 406.895 112.62 404.511 112.96L405.103 115.53C409.547 114.788 415.696 113.746 421.724 112.671C421.193 113.183 420.662 113.695 420.049 114.172C420.796 114.609 421.892 115.546 422.369 116.159C429.088 110.476 430.414 101.663 430.269 91.013L435.979 90.6779C436.431 105.196 436.261 110.495 435.411 111.707C435.042 112.25 434.689 112.391 434.011 112.431C433.252 112.475 431.493 112.538 429.567 112.491C430.05 113.224 430.442 114.443 430.569 115.237C432.413 115.249 434.292 115.179 435.401 114.953C436.592 114.763 437.372 114.397 437.99 113.319C439.249 111.562 439.282 105.991 438.74 89.2336C438.716 88.8343 438.69 87.7139 438.69 87.7139L430.225 88.2108ZM445.013 113.508L480.631 111.417L480.507 109.301L444.888 111.391L445.013 113.508ZM472.726 102.345L463.462 102.888L463.343 100.852L472.607 100.308L472.726 102.345ZM472.949 106.138L463.685 106.682L463.561 104.566L472.825 104.022L472.949 106.138ZM451.941 105.248L460.805 104.727L460.93 106.844L452.065 107.364L451.941 105.248ZM451.723 101.534L460.587 101.014L460.707 103.05L451.842 103.571L451.723 101.534ZM448.787 99.9834L449.33 109.247L476.044 107.679L475.501 98.4154L448.787 99.9834ZM462.508 85.2741L471.653 84.7374L471.782 86.9336L462.637 87.4703L462.508 85.2741ZM462.279 81.3608L471.423 80.8241L471.542 82.8606L462.398 83.3973L462.279 81.3608ZM463.097 95.2968L462.975 93.2204L476.631 92.4188L476.521 90.5421L462.865 91.3436L462.745 89.3071L474.844 88.597L474.608 84.5639L478.92 84.3108L478.81 82.434L474.497 82.6871L474.27 78.8138L462.171 79.524L462.026 77.0482L459.071 77.2217L459.216 79.6974L447.356 80.3935L447.464 82.2304L459.324 81.5343L459.443 83.5708L443.391 84.513L443.501 86.3898L459.553 85.4475L459.682 87.6438L447.583 88.3539L447.691 90.1908L459.79 89.4806L459.91 91.5171L446.852 92.2835L446.962 94.1603L460.02 93.3939L460.142 95.4703L444.01 96.4172L444.131 98.4936L479.75 96.4029L479.628 94.3265L463.097 95.2968ZM499.837 98.6698L503.112 98.4776C501.682 92.5512 511.153 90.7531 510.799 84.7235C510.53 80.1314 506.767 77.4673 501.137 77.7978C496.784 78.0533 493.777 80.0729 491.306 83.0228L493.579 84.8928C495.673 82.3257 498.198 80.9755 500.913 80.8161C504.986 80.577 507.1 82.4564 507.262 85.2116C507.529 89.7638 498.21 92.1139 499.837 98.6698ZM498.714 105.467C498.826 107.384 500.376 108.535 502.133 108.432C503.89 108.329 505.255 107.007 505.143 105.09C505.03 103.173 503.522 102.06 501.765 102.163C500.008 102.266 498.601 103.551 498.714 105.467Z" fill="#06102B"/>
<defs>
<filter id="filter0_d_202_13386" x="0.272461" y="20.7151" width="559.873" height="222.267" filterUnits="userSpaceOnUse" color-interpolation-filters="sRGB">
<feFlood flood-opacity="0" result="BackgroundImageFix"/>
<feColorMatrix in="SourceAlpha" type="matrix" values="0 0 0 0 0 0 0 0 0 0 0 0 0 0 0 0 0 0 127 0" result="hardAlpha"/>
<feOffset/>
<feGaussianBlur stdDeviation="5"/>
<feComposite in2="hardAlpha" operator="out"/>
<feColorMatrix type="matrix" values="0 0 0 0 0.615686 0 0 0 0 0.643137 0 0 0 0 1 0 0 0 0.6 0"/>
<feBlend mode="normal" in2="BackgroundImageFix" result="effect1_dropShadow_202_13386"/>
<feBlend mode="normal" in="SourceGraphic" in2="effect1_dropShadow_202_13386" result="shape"/>
</filter>
</defs>
</svg>
