<svg width="524" height="245" viewBox="0 0 524 245" fill="none" xmlns="http://www.w3.org/2000/svg">
<path d="M510.024 80.0689C502.21 36.7735 459.346 9.16493 416.695 19.9553L64.4756 109.064C32.5861 117.131 12.1804 148.268 17.5101 180.728V180.728C23.2412 215.632 56.4502 239.078 91.2597 232.795L448.799 168.263C490.06 160.816 517.471 121.33 510.024 80.0689V80.0689Z" fill="#D9D9D9"/>
<path d="M481.994 204.25C475.454 192.008 457.455 167.038 455.66 153.369L380.96 169.886C411.513 165.889 490.374 219.933 481.994 204.25Z" fill="#D9D9D9"/>
<path d="M85.8252 169.211C84.177 168.328 81.063 167.504 78.5934 167.143L77.4568 169.633C79.993 170.1 83.1439 171.08 84.7532 171.973L85.8252 169.211ZM86.1401 191.006C86.965 187.029 87.7857 181.819 88.2664 177.43L85.6103 176.456C85.0477 181.194 84.0099 186.701 83.1634 190.067L86.1401 191.006ZM76.6674 158.844C79.1053 159.417 82.2153 160.571 83.7652 161.56L84.9335 158.858C83.3057 157.887 80.2716 156.88 77.8521 156.384L76.6674 158.844ZM93.9483 158.736L102.316 156.752L103.091 160.022L94.7232 162.005L93.9483 158.736ZM106.523 161.839L105.158 156.079L111.385 154.603L110.776 152.034L104.549 153.51L103.673 149.812L100.831 150.486L101.708 154.183L93.3394 156.167L92.4631 152.469L89.6996 153.124L90.576 156.822L84.7766 158.196L85.3855 160.765L91.1848 159.391L92.5501 165.151L98.077 163.841L98.732 166.604L88.3009 169.077L93.1993 189.744L95.7293 189.145L91.4212 170.968L99.3224 169.095L102.053 180.616C100.012 179.291 98.2756 176.126 97.1236 171.96L93.4261 172.836L93.8966 174.821L96.1151 174.295C96.2739 174.792 96.4328 175.289 96.6213 175.737L95.9597 175.894C96.2499 178.333 95.9339 181.162 94.4162 183.084C94.8607 183.225 95.6219 183.662 95.9866 183.986C97.1704 182.39 97.6894 180.417 97.812 178.333C98.7884 180.198 99.984 181.6 101.293 182.441C101.434 181.996 101.83 181.409 102.145 181.005L103.547 186.922L106.155 186.304L101.93 168.477L110.22 166.512L112.951 178.033C110.695 176.841 108.773 173.762 107.555 169.487L103.857 170.364L104.328 172.349L106.546 171.823C106.705 172.32 106.894 172.768 107.043 173.226L106.42 173.374C106.692 175.735 106.348 178.447 104.773 180.3C105.266 180.471 106.027 180.908 106.353 181.241C107.546 179.684 108.113 177.741 108.254 175.735C109.318 177.62 110.582 178.965 111.969 179.787C112.14 179.294 112.643 178.641 112.997 178.228L113.873 181.925C113.984 182.393 113.847 182.507 113.38 182.618C112.922 182.768 111.404 183.127 109.76 183.476C110.228 184.064 110.752 184.885 111.025 185.519C113.4 184.956 114.947 184.549 115.798 183.977C116.64 183.366 116.756 182.64 116.442 181.317L112.199 163.413L101.34 165.986L100.685 163.223L106.523 161.839ZM122.342 150.361L142.971 145.472L144.779 153.101L124.151 157.99L122.342 150.361ZM138.5 166.675L151.539 163.585L150.902 160.899L137.864 163.989L136.443 157.995L148.431 155.154L145.304 141.96L118.837 148.233L121.964 161.427L133.524 158.687L137.26 174.451C133.734 173.971 130.729 172.217 128.203 168.499C128.244 166.763 128.168 165.054 128.023 163.403L124.865 163.781C125.64 169.476 125.321 176.458 121.568 181.088C122.244 181.339 123.448 182.082 124.053 182.555C126.309 179.759 127.469 176.154 127.932 172.386C133.226 178.243 139.532 178.311 147.783 176.355L156.346 174.326C156.308 173.471 156.47 172.076 156.732 171.274C155.107 171.701 148.49 173.269 147.284 173.555C144.832 174.136 142.537 174.515 140.373 174.576L138.5 166.675ZM188.069 135.77L187.386 132.89L154.147 140.768L154.83 143.648L172.033 139.571C169.758 147.14 164.633 155.178 157.879 160.849C158.62 161.372 159.821 162.279 160.425 162.917C165.161 158.794 168.96 153.659 171.83 148.252L176.959 169.892L180.034 169.163L173.982 143.631C174.614 141.96 175.216 140.337 175.731 138.694L188.069 135.77ZM175.729 147.533C181.042 149.48 187.891 152.708 191.355 155.011L193.126 152.248C189.583 149.964 182.634 147.007 177.427 145.157L175.729 147.533ZM222.629 124.619L221.975 124.98L194.185 131.566L194.858 134.408L219.885 128.476C217.62 131.931 214.175 135.954 210.872 138.669L215.199 156.924C215.365 157.624 215.178 157.874 214.369 158.107C213.483 158.358 210.496 159.107 207.238 159.756C207.889 160.424 208.738 161.579 209.088 162.36C213.019 161.428 215.579 160.78 216.947 159.962C218.363 159.175 218.666 158.198 218.196 156.213L214.211 139.399C218.419 135.647 222.753 130.345 225.283 125.758L222.629 124.619ZM257.288 132.272L259.032 139.629L248.834 142.046L247.091 134.689L257.288 132.272ZM262.347 141.474L259.432 129.175L243.824 132.874L247.403 147.975L250.089 147.339L249.425 144.536L262.347 141.474ZM259.936 122.108L240.319 126.757L240.919 129.287L260.535 124.638L259.936 122.108ZM264.432 113.848L232.516 121.413L240.486 155.041L243.289 154.377L235.973 123.512L262.246 117.285L268.675 144.414C268.823 145.036 268.645 145.325 267.953 145.53C267.301 145.726 265.043 146.261 262.573 146.764C263.225 147.432 263.987 148.567 264.297 149.356C267.645 148.563 269.572 148.024 270.668 147.271C271.716 146.488 271.941 145.531 271.517 143.74L264.432 113.848ZM304.045 131.303L294.704 133.517L294.012 130.598L303.353 128.384L304.045 131.303ZM292.822 125.577L302.163 123.363L302.809 126.088L293.468 128.302L292.822 125.577ZM279.941 121.354L279.277 118.552L287.645 116.568L288.309 119.371L279.941 121.354ZM299.244 113.819L299.908 116.622L291.189 118.688L290.525 115.886L299.244 113.819ZM309.698 124.455L305.689 125.405L304.536 120.54L292.315 123.436L291.669 120.712L303.268 117.963L301.644 111.113L290.045 113.862L289.51 111.604L305.001 107.933L304.439 105.558L288.948 109.23L288.21 106.116L285.329 106.799L286.067 109.913L270.888 113.51L271.451 115.884L286.63 112.287L287.165 114.544L276.034 117.183L277.657 124.033L288.789 121.394L289.435 124.119L277.213 127.016L277.72 129.156L289.942 126.26L290.588 128.984L274.669 132.757L275.213 135.054L291.132 131.281L291.824 134.2L279.252 137.179L279.778 139.398L292.35 136.418L292.986 139.104C293.143 139.766 292.965 140.054 292.234 140.269C291.573 140.425 289.247 141.018 286.893 141.493C287.439 142.063 288.155 143.003 288.486 143.706C291.717 142.94 293.731 142.421 294.836 141.707C295.903 141.002 296.291 140.212 295.866 138.421L295.23 135.736L304.571 133.522L304.986 135.273L307.866 134.59L306.234 127.701L310.243 126.751L309.698 124.455ZM324.683 115.354L316.51 117.291L314.582 109.156L322.755 107.219L324.683 115.354ZM319.332 129.201L317.119 119.86L325.292 117.922L327.506 127.264L319.332 129.201ZM315.739 99.4682C315.9 101.362 315.817 104.136 315.676 106.142L311.317 107.176L318.033 135.511L320.679 134.883L319.951 131.809L330.771 129.244L324.784 103.984L318.323 105.515C318.588 103.685 318.781 101.378 318.991 99.314L315.739 99.4682ZM343.789 99.3561L332.151 102.114C332.379 100.128 332.482 98.1308 332.497 96.113L329.576 96.1063C329.595 101.734 328.766 107.603 326.97 111.646C327.685 111.888 329.115 112.371 329.732 112.718C330.66 110.566 331.304 107.906 331.776 105.04L341.662 102.697C344.828 118.307 345.646 124.362 344.684 126.029C344.415 126.627 344.005 126.806 343.227 126.991C342.332 127.203 339.996 127.756 337.411 128.122C338.15 128.811 338.777 129.895 339.058 130.733C341.265 130.333 343.502 129.885 344.827 129.407C346.123 128.976 346.935 128.414 347.533 127.121C348.638 124.845 347.723 118.731 344.139 100.835L343.789 99.3561ZM341.79 118.328C340.001 116.327 336.43 113.227 333.595 110.98L331.651 112.839C334.456 115.134 337.977 118.369 339.698 120.428L341.79 118.328ZM352.368 92.0198C353.66 93.4813 354.925 95.5245 355.432 96.9666L357.507 95.4883C356.971 94.0943 355.618 92.0305 354.276 90.7043L352.368 92.0198ZM363.761 94.9925L348.426 98.6271L348.998 101.04L364.333 97.4057L363.761 94.9925ZM363.867 114L365.408 120.5L358.597 122.115L357.056 115.615L363.867 114ZM365.912 111.008L353.925 113.849L357.015 126.888L359.584 126.279L359.159 124.489L368.578 122.256L365.912 111.008ZM353.272 110.921L365.337 108.061L364.784 105.726L352.718 108.586L353.272 110.921ZM351.5 103.448L352.045 105.744L364.11 102.885L363.566 100.588L351.5 103.448ZM386.737 101.222L378.018 103.288L375.878 94.2582L383.779 92.3856L383.143 89.7L369.442 92.9471C369.63 91.1351 369.75 89.2156 369.754 87.3237L366.735 87.4225C366.815 92.7888 365.972 98.2505 363.935 102.145C364.797 102.311 366.236 102.833 366.891 103.171C367.829 101.058 368.558 98.5829 369.028 95.8818L372.998 94.9409L375.138 103.971L366.147 106.102L366.802 108.865L375.793 106.734L379.409 121.991L382.29 121.309L378.673 106.052L387.392 103.985L386.737 101.222ZM420.916 89.5034L411.847 91.6528L410.961 87.9163L420.03 85.7669L420.916 89.5034ZM422.318 95.4195L413.249 97.5689L412.345 93.7546L421.414 91.6052L422.318 95.4195ZM423.739 101.413L414.67 103.563L413.757 99.7096L422.825 97.5602L423.739 101.413ZM407.935 86.2492L412.714 106.411L426.842 103.062L422.064 82.9006L415.292 84.5057C415.326 83.2643 415.324 81.8672 415.331 80.5089L422.22 78.8761L421.63 76.3851L405.166 80.2873L405.756 82.7783L412.451 81.1916C412.581 82.4351 412.679 83.8916 412.723 85.1146L407.935 86.2492ZM398.464 105.431C398.585 108.197 398.365 111.086 397.611 113.279C398.298 113.404 399.439 113.709 399.95 113.958C400.638 111.657 400.979 108.411 400.862 105.315L398.464 105.431ZM398.498 97.0776L405.193 95.4909L406.106 99.3441L399.411 100.931L398.498 97.0776ZM397.114 91.2393L403.809 89.6526L404.704 93.428L398.009 95.0147L397.114 91.2393ZM409.036 100.952L405.715 86.94L400.382 88.2038C400.417 86.9623 400.445 85.5171 400.481 84.1107L404.957 83.0498L404.348 80.481L388.235 84.3001L391.611 98.5454C392.875 103.878 394.35 110.969 393.351 116.467C393.912 116.581 395.226 117.092 395.765 117.457C396.971 111.622 395.479 103.589 394.141 97.9458L391.374 86.2693L397.679 84.7749C397.809 86.0184 397.878 87.523 397.93 88.785L394.272 89.6521L397.593 103.664L402.03 102.612L404.53 113.16C404.613 113.51 404.514 113.616 404.164 113.699C403.745 113.839 402.617 114.107 401.206 114.4C401.713 114.979 402.294 115.869 402.559 116.464C404.466 116.012 405.702 115.678 406.475 115.124C407.152 114.512 407.229 113.795 406.952 112.627L404.443 102.04L409.036 100.952ZM412.133 108.645C411.375 107.18 409.697 104.783 408.292 103.019L406.464 104.151C407.839 105.963 409.488 108.409 410.235 109.999L412.133 108.645ZM416.147 106.501C415.124 108.429 412.783 111.039 410.589 112.71C411.293 113.078 412.343 113.692 412.891 114.097C415.037 112.396 417.515 109.671 418.893 107.331L416.147 106.501ZM421.578 106.694C423.875 107.712 426.766 109.329 428.265 110.453L430.085 108.419C428.546 107.303 425.596 105.783 423.396 104.824L421.578 106.694ZM445.912 93.1572L449.104 92.4007C446.669 86.8115 455.685 83.4002 454.293 77.523C453.232 73.047 449.065 71.0749 443.577 72.3756C439.334 73.3811 436.723 75.8911 434.799 79.2244L437.362 80.6724C438.979 77.7816 441.233 76.0143 443.879 75.387C447.849 74.4461 450.257 75.9309 450.893 78.6165C451.945 83.0536 443.174 86.9821 445.912 93.1572ZM445.983 100.047C446.426 101.915 448.152 102.78 449.864 102.374C451.577 101.968 452.692 100.43 452.249 98.5614C451.807 96.6931 450.129 95.8576 448.416 96.2635C446.703 96.6693 445.54 98.1783 445.983 100.047Z" fill="#06102B"/>
</svg>
