<svg width="2132" height="68" viewBox="0 0 2132 68" fill="none" xmlns="http://www.w3.org/2000/svg">
<rect width="2131.09" height="67" transform="translate(0 0.518188)" fill="url(#paint0_linear_165_12715)"/>
<path d="M28.028 21.3182H21.548V46.5182H28.028V21.3182ZM56.8916 21.3182V40.2542L39.6836 21.3182H30.8996V46.5182H37.3796V27.6182L54.5516 46.5182H63.3716V21.3182H56.8916ZM96.48 21.3182H65.52V26.7542H77.76V46.5182H84.24V26.7542H96.48V21.3182ZM125.251 26.4662V21.3182H98.6105V46.5182H125.251V41.3702H105.091V36.2582H125.251V31.5782H105.091V26.4662H125.251ZM157.062 30.5702C157.062 24.9542 153.138 21.3182 147.414 21.3182H127.614V46.5182H134.094V39.7862H144.534L148.602 46.5182H156.234L151.59 39.0302C154.974 37.6982 157.062 34.6742 157.062 30.5702ZM134.094 26.7542H145.614C147.558 26.7542 150.582 26.7542 150.582 30.5702C150.582 34.3502 147.558 34.3502 145.614 34.3502H134.094V26.7542ZM185.206 46.5182H192.37L179.338 21.3182H170.59L157.594 46.5182H164.722L167.422 41.1542H182.506L185.206 46.5182ZM169.834 36.3302L174.982 26.1062L180.094 36.3302H169.834ZM190.676 33.8822C190.676 42.2702 195.428 46.8782 206.516 46.8782C216.56 46.8782 221.6 43.0262 222.248 35.7182H215.66C215.048 39.8222 211.88 41.4422 206.516 41.4422C199.964 41.4422 197.156 39.0662 197.156 33.8822C197.156 28.7342 199.928 26.3942 206.516 26.3942C211.916 26.3942 215.048 27.9782 215.66 32.0462H222.248C221.6 24.7742 216.56 20.9582 206.516 20.9582C195.428 20.9582 190.676 25.5302 190.676 33.8822ZM253.593 21.3182H222.633V26.7542H234.873V46.5182H241.353V26.7542H253.593V21.3182ZM262.204 21.3182H255.724V46.5182H262.204V21.3182ZM291.376 21.3182L281.26 41.7302L271.144 21.3182H263.872L276.832 46.5182H285.688L298.648 21.3182H291.376ZM326.836 26.4662V21.3182H300.196V46.5182H326.836V41.3702H306.676V36.2582H326.836V31.5782H306.676V26.4662H326.836ZM391.292 21.3182L383.876 41.1542L375.956 21.3182H368L360.116 41.1182L352.664 21.3182H345.68L355.616 46.5182H364.544L371.996 27.5462L379.412 46.5182H388.376L398.312 21.3182H391.292ZM426.469 26.4662V21.3182H399.829V46.5182H426.469V41.3702H406.309V36.2582H426.469V31.5782H406.309V26.4662H426.469ZM456.517 32.8382C457.777 31.4342 458.497 29.7062 458.497 27.9422C458.497 24.2342 456.733 21.3182 451.009 21.3182H428.833V46.5182H451.873C457.597 46.5182 460.081 43.4222 460.081 39.1742C460.081 36.2582 458.677 34.1702 456.517 32.8382ZM435.313 25.9982H448.669C450.433 25.9982 452.017 25.9982 452.017 28.5902C452.017 31.2182 450.433 31.2182 448.705 31.2182H448.669H435.313V25.9982ZM450.289 41.5142H435.313V36.1862H450.289C452.017 36.1862 453.601 36.1862 453.601 38.8502C453.601 41.5142 452.017 41.5142 450.289 41.5142ZM497.57 21.3182H479.282V46.5182H497.57C504.086 46.5182 509.81 42.4862 509.81 33.9182C509.81 25.3502 504.086 21.3182 497.57 21.3182ZM495.122 41.0822H485.762V26.7542H495.122C500.018 26.7542 503.33 27.7982 503.33 33.9182C503.33 40.0382 500.018 41.0822 495.122 41.0822ZM538.793 26.4662V21.3182H512.153V46.5182H538.793V41.3702H518.633V36.2582H538.793V31.5782H518.633V26.4662H538.793ZM540.797 37.8422C540.797 45.1142 546.953 46.8782 557.285 46.8782C566.609 46.8782 572.981 45.5102 572.981 38.7782C572.981 32.4062 566.825 31.8662 556.889 31.3262C549.545 30.8942 548.033 30.5342 548.033 28.5902C548.033 26.7182 549.545 26.1062 555.917 26.1062C562.649 26.1062 565.421 26.7902 565.421 29.5622H571.901C571.901 23.3342 566.141 20.9582 556.637 20.9582C547.205 20.9582 541.553 22.7222 541.553 28.2662C541.553 33.9182 545.909 35.6462 556.889 36.1502C565.061 36.5462 566.501 36.9062 566.501 38.9942C566.501 40.9742 564.449 41.7302 557.645 41.7302C549.437 41.7302 547.277 40.5062 547.277 37.8422H540.797ZM581.809 21.3182H575.329V46.5182H581.809V21.3182ZM599.557 37.2302H608.953C608.809 39.1382 606.289 41.8742 600.025 41.8742C591.637 41.8742 590.449 37.1222 590.449 34.0622C590.449 31.0382 591.601 26.3942 600.025 26.3942C606.865 26.3942 608.593 29.2382 608.953 31.1462H615.541C615.145 24.8822 610.105 20.9582 600.025 20.9582C589.657 20.9582 583.969 25.5662 583.969 33.9182C583.969 42.2702 589.657 46.8782 598.945 46.8782C604.309 46.8782 608.089 45.1502 610.465 42.5582L610.753 46.5182H615.541V33.0182H599.557V37.2302ZM644.071 21.3182V40.2542L626.863 21.3182H618.079V46.5182H624.559V27.6182L641.731 46.5182H650.551V21.3182H644.071Z" fill="white"/>
<circle cx="701.023" cy="36.0182" r="8" transform="rotate(-0.167893 701.023 36.0182)" fill="white"/>
<path d="M757.075 21.3182H750.595V46.5182H757.075V21.3182ZM785.938 21.3182V40.2542L768.73 21.3182H759.946V46.5182H766.426V27.6182L783.598 46.5182H792.418V21.3182H785.938ZM825.527 21.3182H794.567V26.7542H806.807V46.5182H813.287V26.7542H825.527V21.3182ZM854.297 26.4662V21.3182H827.657V46.5182H854.297V41.3702H834.137V36.2582H854.297V31.5782H834.137V26.4662H854.297ZM886.109 30.5702C886.109 24.9542 882.185 21.3182 876.461 21.3182H856.661V46.5182H863.141V39.7862H873.581L877.649 46.5182H885.281L880.637 39.0302C884.021 37.6982 886.109 34.6742 886.109 30.5702ZM863.141 26.7542H874.661C876.605 26.7542 879.629 26.7542 879.629 30.5702C879.629 34.3502 876.605 34.3502 874.661 34.3502H863.141V26.7542ZM914.253 46.5182H921.417L908.385 21.3182H899.637L886.641 46.5182H893.769L896.469 41.1542H911.553L914.253 46.5182ZM898.881 36.3302L904.029 26.1062L909.141 36.3302H898.881ZM919.723 33.8822C919.723 42.2702 924.475 46.8782 935.563 46.8782C945.607 46.8782 950.647 43.0262 951.295 35.7182H944.707C944.095 39.8222 940.927 41.4422 935.563 41.4422C929.011 41.4422 926.203 39.0662 926.203 33.8822C926.203 28.7342 928.975 26.3942 935.563 26.3942C940.963 26.3942 944.095 27.9782 944.707 32.0462H951.295C950.647 24.7742 945.607 20.9582 935.563 20.9582C924.475 20.9582 919.723 25.5302 919.723 33.8822ZM982.64 21.3182H951.68V26.7542H963.92V46.5182H970.4V26.7542H982.64V21.3182ZM991.251 21.3182H984.771V46.5182H991.251V21.3182ZM1020.42 21.3182L1010.31 41.7302L1000.19 21.3182H992.918L1005.88 46.5182H1014.73L1027.69 21.3182H1020.42ZM1055.88 26.4662V21.3182H1029.24V46.5182H1055.88V41.3702H1035.72V36.2582H1055.88V31.5782H1035.72V26.4662H1055.88ZM1120.34 21.3182L1112.92 41.1542L1105 21.3182H1097.05L1089.16 41.1182L1081.71 21.3182H1074.73L1084.66 46.5182H1093.59L1101.04 27.5462L1108.46 46.5182H1117.42L1127.36 21.3182H1120.34ZM1155.52 26.4662V21.3182H1128.88V46.5182H1155.52V41.3702H1135.36V36.2582H1155.52V31.5782H1135.36V26.4662H1155.52ZM1185.56 32.8382C1186.82 31.4342 1187.54 29.7062 1187.54 27.9422C1187.54 24.2342 1185.78 21.3182 1180.06 21.3182H1157.88V46.5182H1180.92C1186.64 46.5182 1189.13 43.4222 1189.13 39.1742C1189.13 36.2582 1187.72 34.1702 1185.56 32.8382ZM1164.36 25.9982H1177.72C1179.48 25.9982 1181.06 25.9982 1181.06 28.5902C1181.06 31.2182 1179.48 31.2182 1177.75 31.2182H1177.72H1164.36V25.9982ZM1179.34 41.5142H1164.36V36.1862H1179.34C1181.06 36.1862 1182.65 36.1862 1182.65 38.8502C1182.65 41.5142 1181.06 41.5142 1179.34 41.5142ZM1226.62 21.3182H1208.33V46.5182H1226.62C1233.13 46.5182 1238.86 42.4862 1238.86 33.9182C1238.86 25.3502 1233.13 21.3182 1226.62 21.3182ZM1224.17 41.0822H1214.81V26.7542H1224.17C1229.07 26.7542 1232.38 27.7982 1232.38 33.9182C1232.38 40.0382 1229.07 41.0822 1224.17 41.0822ZM1267.84 26.4662V21.3182H1241.2V46.5182H1267.84V41.3702H1247.68V36.2582H1267.84V31.5782H1247.68V26.4662H1267.84ZM1269.84 37.8422C1269.84 45.1142 1276 46.8782 1286.33 46.8782C1295.66 46.8782 1302.03 45.5102 1302.03 38.7782C1302.03 32.4062 1295.87 31.8662 1285.94 31.3262C1278.59 30.8942 1277.08 30.5342 1277.08 28.5902C1277.08 26.7182 1278.59 26.1062 1284.96 26.1062C1291.7 26.1062 1294.47 26.7902 1294.47 29.5622H1300.95C1300.95 23.3342 1295.19 20.9582 1285.68 20.9582C1276.25 20.9582 1270.6 22.7222 1270.6 28.2662C1270.6 33.9182 1274.96 35.6462 1285.94 36.1502C1294.11 36.5462 1295.55 36.9062 1295.55 38.9942C1295.55 40.9742 1293.5 41.7302 1286.69 41.7302C1278.48 41.7302 1276.32 40.5062 1276.32 37.8422H1269.84ZM1310.86 21.3182H1304.38V46.5182H1310.86V21.3182ZM1328.6 37.2302H1338C1337.86 39.1382 1335.34 41.8742 1329.07 41.8742C1320.68 41.8742 1319.5 37.1222 1319.5 34.0622C1319.5 31.0382 1320.65 26.3942 1329.07 26.3942C1335.91 26.3942 1337.64 29.2382 1338 31.1462H1344.59C1344.19 24.8822 1339.15 20.9582 1329.07 20.9582C1318.7 20.9582 1313.02 25.5662 1313.02 33.9182C1313.02 42.2702 1318.7 46.8782 1327.99 46.8782C1333.36 46.8782 1337.14 45.1502 1339.51 42.5582L1339.8 46.5182H1344.59V33.0182H1328.6V37.2302ZM1373.12 21.3182V40.2542L1355.91 21.3182H1347.13V46.5182H1353.61V27.6182L1370.78 46.5182H1379.6V21.3182H1373.12Z" fill="white"/>
<circle cx="1430.07" cy="36.0182" r="8" transform="rotate(-0.167893 1430.07 36.0182)" fill="white"/>
<path d="M1486.12 21.3182H1479.64V46.5182H1486.12V21.3182ZM1514.99 21.3182V40.2542L1497.78 21.3182H1488.99V46.5182H1495.47V27.6182L1512.65 46.5182H1521.47V21.3182H1514.99ZM1554.57 21.3182H1523.61V26.7542H1535.85V46.5182H1542.33V26.7542H1554.57V21.3182ZM1583.34 26.4662V21.3182H1556.7V46.5182H1583.34V41.3702H1563.18V36.2582H1583.34V31.5782H1563.18V26.4662H1583.34ZM1615.16 30.5702C1615.16 24.9542 1611.23 21.3182 1605.51 21.3182H1585.71V46.5182H1592.19V39.7862H1602.63L1606.7 46.5182H1614.33L1609.68 39.0302C1613.07 37.6982 1615.16 34.6742 1615.16 30.5702ZM1592.19 26.7542H1603.71C1605.65 26.7542 1608.68 26.7542 1608.68 30.5702C1608.68 34.3502 1605.65 34.3502 1603.71 34.3502H1592.19V26.7542ZM1643.3 46.5182H1650.46L1637.43 21.3182H1628.68L1615.69 46.5182H1622.82L1625.52 41.1542H1640.6L1643.3 46.5182ZM1627.93 36.3302L1633.08 26.1062L1638.19 36.3302H1627.93ZM1648.77 33.8822C1648.77 42.2702 1653.52 46.8782 1664.61 46.8782C1674.65 46.8782 1679.69 43.0262 1680.34 35.7182H1673.75C1673.14 39.8222 1669.97 41.4422 1664.61 41.4422C1658.06 41.4422 1655.25 39.0662 1655.25 33.8822C1655.25 28.7342 1658.02 26.3942 1664.61 26.3942C1670.01 26.3942 1673.14 27.9782 1673.75 32.0462H1680.34C1679.69 24.7742 1674.65 20.9582 1664.61 20.9582C1653.52 20.9582 1648.77 25.5302 1648.77 33.8822ZM1711.69 21.3182H1680.73V26.7542H1692.97V46.5182H1699.45V26.7542H1711.69V21.3182ZM1720.3 21.3182H1713.82V46.5182H1720.3V21.3182ZM1749.47 21.3182L1739.35 41.7302L1729.24 21.3182H1721.97L1734.93 46.5182H1743.78L1756.74 21.3182H1749.47ZM1784.93 26.4662V21.3182H1758.29V46.5182H1784.93V41.3702H1764.77V36.2582H1784.93V31.5782H1764.77V26.4662H1784.93ZM1849.39 21.3182L1841.97 41.1542L1834.05 21.3182H1826.09L1818.21 41.1182L1810.76 21.3182H1803.77L1813.71 46.5182H1822.64L1830.09 27.5462L1837.51 46.5182H1846.47L1856.41 21.3182H1849.39ZM1884.56 26.4662V21.3182H1857.92V46.5182H1884.56V41.3702H1864.4V36.2582H1884.56V31.5782H1864.4V26.4662H1884.56ZM1914.61 32.8382C1915.87 31.4342 1916.59 29.7062 1916.59 27.9422C1916.59 24.2342 1914.83 21.3182 1909.1 21.3182H1886.93V46.5182H1909.97C1915.69 46.5182 1918.17 43.4222 1918.17 39.1742C1918.17 36.2582 1916.77 34.1702 1914.61 32.8382ZM1893.41 25.9982H1906.76C1908.53 25.9982 1910.11 25.9982 1910.11 28.5902C1910.11 31.2182 1908.53 31.2182 1906.8 31.2182H1906.76H1893.41V25.9982ZM1908.38 41.5142H1893.41V36.1862H1908.38C1910.11 36.1862 1911.69 36.1862 1911.69 38.8502C1911.69 41.5142 1910.11 41.5142 1908.38 41.5142ZM1955.66 21.3182H1937.38V46.5182H1955.66C1962.18 46.5182 1967.9 42.4862 1967.9 33.9182C1967.9 25.3502 1962.18 21.3182 1955.66 21.3182ZM1953.22 41.0822H1943.86V26.7542H1953.22C1958.11 26.7542 1961.42 27.7982 1961.42 33.9182C1961.42 40.0382 1958.11 41.0822 1953.22 41.0822ZM1996.89 26.4662V21.3182H1970.25V46.5182H1996.89V41.3702H1976.73V36.2582H1996.89V31.5782H1976.73V26.4662H1996.89ZM1998.89 37.8422C1998.89 45.1142 2005.05 46.8782 2015.38 46.8782C2024.7 46.8782 2031.08 45.5102 2031.08 38.7782C2031.08 32.4062 2024.92 31.8662 2014.98 31.3262C2007.64 30.8942 2006.13 30.5342 2006.13 28.5902C2006.13 26.7182 2007.64 26.1062 2014.01 26.1062C2020.74 26.1062 2023.52 26.7902 2023.52 29.5622H2030C2030 23.3342 2024.24 20.9582 2014.73 20.9582C2005.3 20.9582 1999.65 22.7222 1999.65 28.2662C1999.65 33.9182 2004 35.6462 2014.98 36.1502C2023.16 36.5462 2024.6 36.9062 2024.6 38.9942C2024.6 40.9742 2022.54 41.7302 2015.74 41.7302C2007.53 41.7302 2005.37 40.5062 2005.37 37.8422H1998.89ZM2039.9 21.3182H2033.42V46.5182H2039.9V21.3182ZM2057.65 37.2302H2067.05C2066.9 39.1382 2064.38 41.8742 2058.12 41.8742C2049.73 41.8742 2048.54 37.1222 2048.54 34.0622C2048.54 31.0382 2049.7 26.3942 2058.12 26.3942C2064.96 26.3942 2066.69 29.2382 2067.05 31.1462H2073.64C2073.24 24.8822 2068.2 20.9582 2058.12 20.9582C2047.75 20.9582 2042.06 25.5662 2042.06 33.9182C2042.06 42.2702 2047.75 46.8782 2057.04 46.8782C2062.4 46.8782 2066.18 45.1502 2068.56 42.5582L2068.85 46.5182H2073.64V33.0182H2057.65V37.2302ZM2102.17 21.3182V40.2542L2084.96 21.3182H2076.17V46.5182H2082.65V27.6182L2099.83 46.5182H2108.65V21.3182H2102.17Z" fill="white"/>
<defs>
<linearGradient id="paint0_linear_165_12715" x1="0" y1="33.5" x2="2131.09" y2="33.499" gradientUnits="userSpaceOnUse">
<stop stop-color="#9DA4FF"/>
<stop offset="1" stop-color="#55FFAD"/>
</linearGradient>
</defs>
</svg>
