<svg width="63" height="63" viewBox="0 0 63 63" fill="none" xmlns="http://www.w3.org/2000/svg">
<path d="M30.6922 2.80377C31.0916 2.25632 31.9084 2.25632 32.3078 2.80377L37.5498 9.98815C38.268 10.9725 39.5102 11.4246 40.6932 11.1323L49.3268 8.99815C49.9846 8.83553 50.6103 9.36056 50.5644 10.0367L49.9619 18.9097C49.8794 20.1254 50.5404 21.2703 51.6345 21.8066L59.62 25.7214C60.2285 26.0197 60.3703 26.8241 59.9005 27.3125L53.7356 33.7224C52.8909 34.6006 52.6613 35.9025 53.1547 37.0167L56.7556 45.1485C57.03 45.7682 56.6216 46.4755 55.9478 46.5477L47.1049 47.4952C45.8933 47.625 44.8806 48.4748 44.5424 49.6454L42.0738 58.1893C41.8857 58.8404 41.1182 59.1197 40.5556 58.7419L33.1726 53.7837C32.161 53.1043 30.839 53.1043 29.8274 53.7837L22.4444 58.7419C21.8818 59.1197 21.1143 58.8404 20.9262 58.1893L18.4576 49.6454C18.1194 48.4748 17.1067 47.625 15.8951 47.4952L7.05225 46.5477C6.37843 46.4755 5.97003 45.7682 6.24442 45.1485L9.84531 37.0167C10.3387 35.9025 10.1091 34.6006 9.26443 33.7224L3.09945 27.3125C2.62968 26.8241 2.77152 26.0197 3.38001 25.7214L11.3655 21.8066C12.4596 21.2703 13.1206 20.1254 13.0381 18.9097L12.4356 10.0367C12.3897 9.36056 13.0154 8.83553 13.6733 8.99815L22.3068 11.1323C23.4898 11.4246 24.732 10.9725 25.4502 9.98815L30.6922 2.80377Z" stroke="white" stroke-width="2"/>
</svg>
