<svg width="197" height="143" viewBox="0 0 197 143" fill="none" xmlns="http://www.w3.org/2000/svg">
<path fill-rule="evenodd" clip-rule="evenodd" d="M17.7482 78.0908C10.0483 62.7993 8.35905 46.9301 14.3539 33.0555C28.4535 0.423403 79.7194 -8.81794 128.859 12.4144C178 33.6467 206.406 77.3124 192.306 109.945C178.206 142.577 126.94 151.818 77.8004 130.586C58.4864 122.24 42.3754 110.43 30.7894 97.1857C19.3535 99.5355 9.25542 101.416 4.2504 101.416C-4.13185 101.416 4.89243 90.8012 17.7482 78.0908Z" fill="#151F3F"/>
<path d="M14.3539 33.0555L13.436 32.6589L14.3539 33.0555ZM17.7482 78.0908L18.6414 77.641L18.9685 78.2906L18.4513 78.8019L17.7482 78.0908ZM128.859 12.4144L128.463 13.3324L128.859 12.4144ZM192.306 109.945L191.388 109.548L192.306 109.945ZM77.8004 130.586L78.197 129.668L77.8004 130.586ZM30.7894 97.1857L30.5881 96.2062L31.1586 96.089L31.542 96.5273L30.7894 97.1857ZM15.2719 33.4521C9.42416 46.9862 11.0369 62.5391 18.6414 77.641L16.8551 78.5405C9.05969 63.0595 7.29395 46.874 13.436 32.6589L15.2719 33.4521ZM128.463 13.3324C104.048 2.78327 79.1461 -0.175858 58.6439 3.51992C38.1331 7.21727 22.1471 17.5402 15.2719 33.4521L13.436 32.6589C20.6604 15.9387 37.3571 5.32491 58.2891 1.55165C79.2298 -2.22319 104.531 0.813174 129.256 11.4964L128.463 13.3324ZM191.388 109.548C198.263 93.6359 194.824 74.92 183.459 57.4498C172.099 39.9871 152.878 23.8814 128.463 13.3324L129.256 11.4964C153.981 22.1796 173.533 38.523 185.136 56.3592C196.734 74.1881 200.448 93.621 193.224 110.341L191.388 109.548ZM78.197 129.668C102.612 140.217 127.514 143.176 148.016 139.48C168.527 135.783 184.513 125.46 191.388 109.548L193.224 110.341C185.999 127.061 169.303 137.675 148.371 141.448C127.43 145.223 102.129 142.187 77.4037 131.504L78.197 129.668ZM31.542 96.5273C43.0228 109.651 59.0088 121.377 78.197 129.668L77.4037 131.504C57.964 123.104 41.7281 111.209 30.0367 97.8442L31.542 96.5273ZM4.2504 100.416C9.1291 100.416 19.1081 98.565 30.5881 96.2062L30.9906 98.1653C19.5988 100.506 9.38173 102.416 4.2504 102.416V100.416ZM18.4513 78.8019C12.0157 85.1648 6.61841 90.9284 3.86827 95.0727C3.18483 96.1026 2.68501 97.0033 2.37357 97.7654C2.0562 98.542 1.96968 99.0905 2.00928 99.449C2.04201 99.7454 2.15645 99.9263 2.40723 100.075C2.71564 100.259 3.28323 100.416 4.2504 100.416V102.416C3.12201 102.416 2.13799 102.242 1.38571 101.795C0.575806 101.314 0.120499 100.566 0.0213776 99.6686C-0.0708923 98.8334 0.148636 97.923 0.522186 97.0088C0.901657 96.0802 1.47762 95.0582 2.20181 93.9669C5.08221 89.6262 10.625 83.7272 17.0452 77.3797L18.4513 78.8019Z" fill="url(#paint0_linear_224_34973)"/>
<path d="M97.4139 43.4368C86.903 37.7811 77.6534 39.7084 72.3161 49.6276C65.872 61.604 70.1415 68.6616 87.5002 78.0019L89.9502 74.1238C77.6639 67.5129 71.4336 62.816 77.1349 52.2205C81.5927 43.9357 88.6798 43.9335 95.5275 47.6181C99.0217 49.4983 103.962 52.8106 101.595 58.2231C100.883 55.6962 98.8734 53.4883 95.5179 51.7555C90.4 49.1107 84.9707 48.2606 81.4832 54.7419C77.9806 61.2514 81.6208 65.4267 86.7235 68.0997C90.092 69.8759 93.07 70.3518 95.586 69.5253L94.3427 71.836L99.1896 74.444L105.421 62.8622C109.743 54.831 107.756 49.0015 97.4139 43.4368ZM90.2162 64.7826C86.1301 62.584 84.7099 60.2936 86.302 57.3348C87.894 54.3759 90.588 54.2992 94.674 56.4978C98.5628 58.5903 100.016 60.7528 98.8178 63.4515L98.3175 64.3814C96.7101 66.896 94.105 66.8751 90.2162 64.7826ZM134.989 63.6548C124.478 57.9991 115.228 59.9264 109.891 69.8456C103.447 81.822 107.716 88.8796 125.075 98.2199L127.525 94.3419C115.239 87.7309 109.008 83.034 114.709 72.4385C119.167 64.1537 126.254 64.1516 133.102 67.8361C136.596 69.7163 141.537 73.0286 139.169 78.4411C138.458 75.9143 136.448 73.7064 133.093 71.9735C127.975 69.3288 122.545 68.4786 119.058 74.9599C115.555 81.4694 119.195 85.6447 124.298 88.3177C127.667 90.0939 130.645 90.5698 133.161 89.7433L131.917 92.054L136.764 94.662L142.996 83.0802C147.318 75.049 145.331 69.2195 134.989 63.6548ZM127.791 85.0007C123.705 82.8021 122.285 80.5116 123.877 77.5528C125.469 74.5939 128.163 74.5172 132.249 76.7158C136.137 78.8083 137.59 80.9709 136.392 83.6695L135.892 84.5994C134.285 87.114 131.68 87.0931 127.791 85.0007Z" fill="white"/>
<defs>
<linearGradient id="paint0_linear_224_34973" x1="189.14" y1="10.165" x2="-19.0328" y2="62.8626" gradientUnits="userSpaceOnUse">
<stop stop-color="#313A65"/>
<stop offset="1" stop-color="#313A65" stop-opacity="0"/>
</linearGradient>
</defs>
</svg>
