<svg width="260" height="189" viewBox="0 0 260 189" fill="none" xmlns="http://www.w3.org/2000/svg">
    <path fill-rule="evenodd" clip-rule="evenodd" d="M236.292 102.806C246.46 82.6117 248.691 61.6549 240.774 43.3322C222.155 0.23855 154.453 -11.9655 89.5594 16.0737C24.6655 44.1129 -12.8472 101.778 5.77262 144.871C24.3924 187.965 92.0937 200.169 156.988 172.13C182.493 161.109 203.769 145.512 219.07 128.022C234.172 131.125 247.507 133.609 254.117 133.609C265.187 133.609 253.269 119.591 236.292 102.806Z" fill="#151F3F" />
    <path d="M240.774 43.3322L241.692 42.9356L240.774 43.3322ZM236.292 102.806L235.399 102.356L235.072 103.005L235.589 103.517L236.292 102.806ZM89.5594 16.0737L89.956 16.9917L89.5594 16.0737ZM5.77262 144.871L6.6906 144.475L5.77262 144.871ZM156.988 172.13L157.384 173.048L156.988 172.13ZM219.07 128.022L219.271 127.043L218.701 126.925L218.317 127.364L219.07 128.022ZM239.856 43.7288C247.626 61.711 245.472 82.3515 235.399 102.356L237.185 103.255C247.449 82.8719 249.756 61.5988 241.692 42.9356L239.856 43.7288ZM89.956 16.9917C122.248 3.03918 155.197 -0.881005 182.342 4.01228C209.496 8.90713 230.721 22.5861 239.856 43.7288L241.692 42.9356C232.208 20.9846 210.272 7.01477 182.697 2.044C155.113 -2.92833 121.765 1.06908 89.1628 15.1558L89.956 16.9917ZM6.6906 144.475C-2.44469 123.332 2.14086 98.5007 17.1866 75.3723C32.2275 52.2513 57.6643 30.9442 89.956 16.9917L89.1628 15.1558C56.5606 29.2424 30.794 50.7872 15.5101 74.2817C0.231018 97.7688 -4.62985 123.317 4.85465 145.268L6.6906 144.475ZM156.591 171.212C124.299 185.164 91.35 189.084 64.2047 184.191C37.0508 179.296 15.8259 165.617 6.6906 144.475L4.85465 145.268C14.3391 167.219 36.2748 181.189 63.8499 186.159C91.4337 191.132 124.782 187.134 157.384 173.048L156.591 171.212ZM218.317 127.364C203.122 144.733 181.971 160.245 156.591 171.212L157.384 173.048C183.016 161.973 204.417 146.291 219.822 128.681L218.317 127.364ZM254.117 132.609C247.634 132.609 234.417 130.155 219.271 127.043L218.869 129.002C233.927 132.096 247.381 134.609 254.117 134.609V132.609ZM235.589 103.517C244.085 111.917 251.236 119.55 254.889 125.054C255.798 126.424 256.47 127.633 256.892 128.666C257.32 129.714 257.456 130.496 257.395 131.046C257.341 131.534 257.136 131.864 256.715 132.114C256.236 132.398 255.42 132.609 254.117 132.609V134.609C255.581 134.609 256.814 134.381 257.736 133.833C258.716 133.251 259.263 132.355 259.383 131.266C259.497 130.239 259.228 129.095 258.744 127.91C258.253 126.71 257.505 125.38 256.555 123.949C252.772 118.248 245.476 110.479 236.995 102.094L235.589 103.517Z" fill="url(#paint0_linear_224_34972)" />
    <path d="M97.2256 74.4855L85.5979 82.9801L108.65 113.992L119.761 105.875L97.2256 74.4855ZM112.567 119.354L118.891 128.01L129.937 119.94L123.613 111.284L112.567 119.354ZM125.366 53.9275L113.738 62.4221L136.791 93.4342L147.901 85.3172L125.366 53.9275ZM140.708 98.7958L147.031 107.452L158.078 99.3821L151.754 90.726L140.708 98.7958Z" fill="white" />
    <defs>
        <linearGradient id="paint0_linear_224_34972" x1="9.95337" y1="13.1032" x2="284.865" y2="82.6952" gradientUnits="userSpaceOnUse">
            <stop stop-color="#313A65" />
            <stop offset="1" stop-color="#313A65" stop-opacity="0" />
        </linearGradient>
    </defs>
</svg>