<svg width="79" height="116" viewBox="0 0 79 116" fill="none" xmlns="http://www.w3.org/2000/svg">
<g filter="url(#filter0_d_224_35089)">
<path d="M16.477 45.1159L49.701 11.7819L34.9769 39.616L59.3674 43.2346L11.9771 79.1156L38.5196 46.7974L16.477 45.1159Z" fill="#FFF385"/>
<path d="M16.477 45.1159L49.701 11.7819L34.9769 39.616L59.3674 43.2346L11.9771 79.1156L38.5196 46.7974L16.477 45.1159Z" stroke="#FFF385" stroke-width="2" stroke-linejoin="round"/>
</g>
<g filter="url(#filter1_d_224_35089)">
<path d="M42.5184 87.2107L67.9553 80.3078L52.6445 89.0552L61.493 97.7973L32.4513 104.302L50.1871 94.7872L42.5184 87.2107Z" fill="#FFF385"/>
<path d="M42.5184 87.2107L67.9553 80.3078L52.6445 89.0552L61.493 97.7973L32.4513 104.302L50.1871 94.7872L42.5184 87.2107Z" stroke="#FFF385" stroke-width="2" stroke-linejoin="round"/>
</g>
<defs>
<filter id="filter0_d_224_35089" x="0.977539" y="0.781921" width="69.3896" height="89.3337" filterUnits="userSpaceOnUse" color-interpolation-filters="sRGB">
<feFlood flood-opacity="0" result="BackgroundImageFix"/>
<feColorMatrix in="SourceAlpha" type="matrix" values="0 0 0 0 0 0 0 0 0 0 0 0 0 0 0 0 0 0 127 0" result="hardAlpha"/>
<feOffset/>
<feGaussianBlur stdDeviation="5"/>
<feComposite in2="hardAlpha" operator="out"/>
<feColorMatrix type="matrix" values="0 0 0 0 1 0 0 0 0 0.952941 0 0 0 0 0.521569 0 0 0 0.6 0"/>
<feBlend mode="normal" in2="BackgroundImageFix" result="effect1_dropShadow_224_35089"/>
<feBlend mode="normal" in="SourceGraphic" in2="effect1_dropShadow_224_35089" result="shape"/>
</filter>
<filter id="filter1_d_224_35089" x="21.4512" y="69.3077" width="57.5039" height="45.9945" filterUnits="userSpaceOnUse" color-interpolation-filters="sRGB">
<feFlood flood-opacity="0" result="BackgroundImageFix"/>
<feColorMatrix in="SourceAlpha" type="matrix" values="0 0 0 0 0 0 0 0 0 0 0 0 0 0 0 0 0 0 127 0" result="hardAlpha"/>
<feOffset/>
<feGaussianBlur stdDeviation="5"/>
<feComposite in2="hardAlpha" operator="out"/>
<feColorMatrix type="matrix" values="0 0 0 0 1 0 0 0 0 0.952941 0 0 0 0 0.521569 0 0 0 0.6 0"/>
<feBlend mode="normal" in2="BackgroundImageFix" result="effect1_dropShadow_224_35089"/>
<feBlend mode="normal" in="SourceGraphic" in2="effect1_dropShadow_224_35089" result="shape"/>
</filter>
</defs>
</svg>
